999
dxfrw 0.6.3
  0
SECTION
  2
HEADER
  9
$ACADVER
  1
AC1021
  9
$DWGCODEPAGE
  3
ANSI_1252
  9
$INSBASE
 10
0
 20
0
 30
0
  9
$EXTMIN
 10
-2175.581289814516
 20
-1408.576194584633
 30
0
  9
$EXTMAX
 10
7108.75
 20
3957.731123875302
 30
0
  9
$LIMMIN
 10
0
 20
0
  9
$LIMMAX
 10
420
 20
297
  9
$ORTHOMODE
 70
    0
  9
$REGENMODE
 70
    1
  9
$FILLMODE
 70
    1
  9
$QTEXTMODE
 70
    0
  9
$MIRRTEXT
 70
    0
  9
$LTSCALE
 40
1
  9
$ATTMODE
 70
    0
  9
$TEXTSIZE
 40
2.5
  9
$TRACEWID
 40
15.68
  9
$TEXTSTYLE
  7
STANDARD
  9
$CLAYER
  8
quote
  9
$CELTYPE
  6
BYLAYER
  9
$CECOLOR
 62
  256
  9
$CELTSCALE
 40
1
  9
$DISPSILH
 70
    0
  9
$DIMSCALE
 40
7
  9
$DIMASZ
 40
2.5
  9
$DIMEXO
 40
0.625
  9
$DIMDLI
 40
3.75
  9
$DIMRND
 40
0
  9
$DIMDLE
 40
0
  9
$DIMEXE
 40
1.25
  9
$DIMTP
 40
0
  9
$DIMTM
 40
0
  9
$DIMTXT
 40
5
  9
$DIMCEN
 40
2.5
  9
$DIMTSZ
 40
0
  9
$DIMTOL
 70
    0
  9
$DIMLIM
 70
    0
  9
$DIMTIH
 70
    0
  9
$DIMTOH
 70
    0
  9
$DIMSE1
 70
    0
  9
$DIMSE2
 70
    0
  9
$DIMTAD
 70
    1
  9
$DIMZIN
 70
    8
  9
$DIMBLK
  1

  9
$DIMASO
 70
    1
  9
$DIMSHO
 70
    1
  9
$DIMPOST
  1

  9
$DIMAPOST
  1

  9
$DIMALT
 70
    0
  9
$DIMALTD
 70
    3
  9
$DIMALTF
 40
0.03937
  9
$DIMLFAC
 40
1
  9
$DIMTOFL
 70
    1
  9
$DIMTVP
 40
0
  9
$DIMTIX
 70
    0
  9
$DIMSOXD
 70
    0
  9
$DIMSAH
 70
    0
  9
$DIMBLK1
  1

  9
$DIMBLK2
  1

  9
$DIMSTYLE
  2
STANDARD
  9
$DIMCLRD
 70
    0
  9
$DIMCLRE
 70
    0
  9
$DIMCLRT
 70
    0
  9
$DIMTFAC
 40
1
  9
$DIMGAP
 40
0.625
  9
$DIMJUST
 70
    0
  9
$DIMSD1
 70
    0
  9
$DIMSD2
 70
    0
  9
$DIMTOLJ
 70
    0
  9
$DIMTZIN
 70
    8
  9
$DIMALTZ
 70
    0
  9
$DIMALTTZ
 70
    0
  9
$DIMUPT
 70
    0
  9
$DIMDEC
 70
    2
  9
$DIMTDEC
 70
    2
  9
$DIMALTU
 70
    2
  9
$DIMALTTD
 70
    3
  9
$DIMTXSTY
  7
standard
  9
$DIMAUNIT
 70
    0
  9
$DIMADEC
 70
    0
  9
$DIMALTRND
 40
0
  9
$DIMAZIN
 70
    0
  9
$DIMDSEP
 70
   44
  9
$DIMATFIT
 70
    3
  9
$DIMFRAC
 70
    0
  9
$DIMLDRBLK
  1
STANDARD
  9
$DIMLUNIT
 70
    2
  9
$DIMLWD
 70
   -2
  9
$DIMLWE
 70
   -2
  9
$DIMTMOVE
 70
    0
  9
$DIMFXL
 40
1
  9
$DIMFXLON
 70
    0
  9
$DIMJOGANG
 40
0.7854
  9
$DIMTFILL
 70
    0
  9
$DIMTFILLCLR
 70
    0
  9
$DIMARCSYM
 70
    0
  9
$DIMLTYPE
  6

  9
$DIMLTEX1
  6

  9
$DIMLTEX2
  6

  9
$LUNITS
 70
    2
  9
$LUPREC
 70
    4
  9
$SKETCHINC
 40
1
  9
$FILLETRAD
 40
0
  9
$AUNITS
 70
    0
  9
$AUPREC
 70
    2
  9
$MENU
  1
.
  9
$ELEVATION
 40
0
  9
$PELEVATION
 40
0
  9
$THICKNESS
 40
0
  9
$LIMCHECK
 70
    0
  9
$CHAMFERA
 40
0
  9
$CHAMFERB
 40
0
  9
$CHAMFERC
 40
0
  9
$CHAMFERD
 40
0
  9
$SKPOLY
 70
    0
  9
$USRTIMER
 70
    1
  9
$ANGBASE
 50
0
  9
$ANGDIR
 70
    0
  9
$PDMODE
 70
   34
  9
$PDSIZE
 40
0
  9
$PLINEWID
 40
0
  9
$SPLFRAME
 70
    0
  9
$SPLINETYPE
 70
    2
  9
$SPLINESEGS
 70
    8
  9
$HANDSEED
  5
20000
  9
$SURFTAB1
 70
    6
  9
$SURFTAB2
 70
    6
  9
$SURFTYPE
 70
    6
  9
$SURFU
 70
    6
  9
$SURFV
 70
    6
  9
$UCSBASE
  2

  9
$UCSNAME
  2

  9
$UCSORG
 10
0
 20
0
 30
0
  9
$UCSXDIR
 10
1
 20
0
 30
0
  9
$UCSYDIR
 10
0
 20
1
 30
0
  9
$UCSORTHOREF
  2

  9
$UCSORTHOVIEW
 70
    0
  9
$UCSORGTOP
 10
0
 20
0
 30
0
  9
$UCSORGBOTTOM
 10
0
 20
0
 30
0
  9
$UCSORGLEFT
 10
0
 20
0
 30
0
  9
$UCSORGRIGHT
 10
0
 20
0
 30
0
  9
$UCSORGFRONT
 10
0
 20
0
 30
0
  9
$UCSORGBACK
 10
0
 20
0
 30
0
  9
$PUCSBASE
  2

  9
$PUCSNAME
  2

  9
$PUCSORG
 10
0
 20
0
 30
0
  9
$PUCSXDIR
 10
1
 20
0
 30
0
  9
$PUCSYDIR
 10
0
 20
1
 30
0
  9
$PUCSORTHOREF
  2

  9
$PUCSORTHOVIEW
 70
    0
  9
$PUCSORGTOP
 10
0
 20
0
 30
0
  9
$PUCSORGBOTTOM
 10
0
 20
0
 30
0
  9
$PUCSORGLEFT
 10
0
 20
0
 30
0
  9
$PUCSORGRIGHT
 10
0
 20
0
 30
0
  9
$PUCSORGFRONT
 10
0
 20
0
 30
0
  9
$PUCSORGBACK
 10
0
 20
0
 30
0
  9
$USERI1
 70
    0
  9
$USERI2
 70
    0
  9
$USERI3
 70
    0
  9
$USERI4
 70
    0
  9
$USERI5
 70
    0
  9
$USERR1
 40
0
  9
$USERR2
 40
0
  9
$USERR3
 40
0
  9
$USERR4
 40
0
  9
$USERR5
 40
0
  9
$WORLDVIEW
 70
    1
  9
$SHADEDGE
 70
    3
  9
$SHADEDIF
 70
   70
  9
$TILEMODE
 70
    1
  9
$MAXACTVP
 70
   64
  9
$PINSBASE
 10
145.8579752837265
 20
104.8820641889748
 30
0
  9
$PLIMCHECK
 70
    0
  9
$PEXTMIN
 10
0
 20
0
 30
0
  9
$PEXTMAX
 10
0
 20
0
 30
0
  9
$GRIDMODE
 70
    1
  9
$SNAPSTYLE
 70
    0
  9
$GRIDUNIT
 10
0
 20
0
  9
$PLIMMIN
 10
0
 20
0
  9
$PLIMMAX
 10
297
 20
210
  9
$UNITMODE
 70
    0
  9
$VISRETAIN
 70
    1
  9
$PLINEGEN
 70
    0
  9
$PSLTSCALE
 70
    1
  9
$TREEDEPTH
 70
 3020
  9
$CMLSTYLE
  2
Standard
  9
$CMLJUST
 70
    0
  9
$CMLSCALE
 40
20
  9
$PROXYGRAPHICS
 70
    1
  9
$MEASUREMENT
 70
    1
  9
$CELWEIGHT
370
   -1
  9
$ENDCAPS
280
    0
  9
$JOINSTYLE
280
    0
  9
$LWDISPLAY
290
    0
  9
$INSUNITS
 70
    4
  9
$HYPERLINKBASE
  1

  9
$STYLESHEET
  1

  9
$XEDIT
290
    1
  9
$CEPSNTYPE
380
    0
  9
$PSTYLEMODE
290
    1
  9
$EXTNAMES
290
    1
  9
$PSVPSCALE
 40
0.06666666666666667
  9
$OLESTARTUP
290
    0
  9
$SORTENTS
280
  127
  9
$INDEXCTL
280
    0
  9
$HIDETEXT
280
    1
  9
$XCLIPFRAME
290
    0
  9
$HALOGAP
280
    0
  9
$OBSCOLOR
 70
  257
  9
$OBSLTYPE
280
    0
  9
$INTERSECTIONDISPLAY
280
    0
  9
$INTERSECTIONCOLOR
 70
  257
  9
$DIMASSOC
280
    1
  9
$PROJECTNAME
  1

  9
$CAMERADISPLAY
290
    0
  9
$LENSLENGTH
 40
50
  9
$CAMERAHEIGHT
 40
0
  9
$STEPSPERSEC
 40
2
  9
$STEPSIZE
 40
50
  9
$3DDWFPREC
 40
2
  9
$PSOLWIDTH
 40
5
  9
$PSOLHEIGHT
 40
80
  9
$LOFTANG1
 40
1.570796326794897
  9
$LOFTANG2
 40
1.570796326794897
  9
$LOFTMAG1
 40
0
  9
$LOFTMAG2
 40
0
  9
$LOFTPARAM
 70
    7
  9
$LOFTNORMALS
280
    1
  9
$LATITUDE
 40
1
  9
$LONGITUDE
 40
1
  9
$NORTHDIRECTION
 40
0
  9
$TIMEZONE
 70
-8000
  9
$LIGHTGLYPHDISPLAY
280
    1
  9
$TILEMODELIGHTSYNCH
280
    1
  9
$SOLIDHIST
280
    1
  9
$SHOWHIST
280
    1
  9
$DWFFRAME
280
    2
  9
$DGNFRAME
280
    0
  9
$REALWORLDSCALE
290
    1
  9
$INTERFERECOLOR
 62
    1
  9
$CSHADOW
280
    0
  9
$SHADOWPLANELOCATION
 40
0
  0
ENDSEC
  0
SECTION
  2
CLASSES
  0
ENDSEC
  0
SECTION
  2
TABLES
  0
TABLE
  2
VPORT
  5
8
330
0
100
AcDbSymbolTable
 70
    1
  0
VPORT
  5
31
330
2
100
AcDbSymbolTableRecord
100
AcDbViewportTableRecord
  2
*ACTIVE
 70
    0
 10
0
 20
0
 11
1
 21
1
 12
3540.999265906758
 22
2624.258349239198
 13
0
 23
0
 14
10
 24
10
 15
10
 25
10
 16
0
 26
0
 36
1
 17
0
 27
0
 37
0
 40
7123.986665401342
 41
1.901768172888016
 42
50
 43
0
 44
0
 50
0
 51
0
 71
    0
 72
  100
 73
    1
 74
    3
 75
    0
 76
    1
 77
    0
 78
    0
281
    0
 65
    1
110
0
120
0
130
0
111
1
121
0
131
0
112
0
122
1
132
0
 79
    0
146
0
348
10020
 60
    7
 61
    5
292
1
282
    1
141
0
142
0
 63
  250
421
3358443
  0
ENDTAB
  0
TABLE
  2
LTYPE
  5
5
330
0
100
AcDbSymbolTable
 70
    4
  0
LTYPE
  5
14
330
5
100
AcDbSymbolTableRecord
100
AcDbLinetypeTableRecord
  2
ByBlock
 70
    0
  3

 72
   65
 73
    0
 40
0
  0
LTYPE
  5
15
330
5
100
AcDbSymbolTableRecord
100
AcDbLinetypeTableRecord
  2
ByLayer
 70
    0
  3

 72
   65
 73
    0
 40
0
  0
LTYPE
  5
16
330
5
100
AcDbSymbolTableRecord
100
AcDbLinetypeTableRecord
  2
Continuous
 70
    0
  3
Solid line
 72
   65
 73
    0
 40
0
  0
LTYPE
  5
32
330
5
100
AcDbSymbolTableRecord
100
AcDbLinetypeTableRecord
  2
DOT
 70
    0
  3
Dot . . . . . . . . . . . . . . . . . . . . . .
 72
   65
 73
    2
 40
6.35
 49
0
 74
    0
 49
-6.35
 74
    0
  0
LTYPE
  5
33
330
5
100
AcDbSymbolTableRecord
100
AcDbLinetypeTableRecord
  2
DOTTINY
 70
    0
  3
Dot (.15x) .....................................
 72
   65
 73
    2
 40
0.9525
 49
0
 74
    0
 49
-0.9525
 74
    0
  0
LTYPE
  5
34
330
5
100
AcDbSymbolTableRecord
100
AcDbLinetypeTableRecord
  2
DOT2
 70
    0
  3
Dot (.5x) .....................................
 72
   65
 73
    2
 40
3.175
 49
0
 74
    0
 49
-3.175
 74
    0
  0
LTYPE
  5
35
330
5
100
AcDbSymbolTableRecord
100
AcDbLinetypeTableRecord
  2
DOTX2
 70
    0
  3
Dot (2x) .  .  .  .  .  .  .  .  .  .  .  .  .
 72
   65
 73
    2
 40
12.7
 49
0
 74
    0
 49
-12.7
 74
    0
  0
LTYPE
  5
36
330
5
100
AcDbSymbolTableRecord
100
AcDbLinetypeTableRecord
  2
DASHED
 70
    0
  3
Dashed _ _ _ _ _ _ _ _ _ _ _ _ _ _ _ _ _
 72
   65
 73
    2
 40
19.05
 49
12.7
 74
    0
 49
-6.35
 74
    0
  0
LTYPE
  5
37
330
5
100
AcDbSymbolTableRecord
100
AcDbLinetypeTableRecord
  2
DASHEDTINY
 70
    0
  3
Dashed (.15x) _ _ _ _ _ _ _ _ _ _ _ _ _ _ _ _ _
 72
   65
 73
    2
 40
2.8575
 49
1.905
 74
    0
 49
-0.9525
 74
    0
  0
LTYPE
  5
38
330
5
100
AcDbSymbolTableRecord
100
AcDbLinetypeTableRecord
  2
DASHED2
 70
    0
  3
Dashed (.5x) _ _ _ _ _ _ _ _ _ _ _ _ _ _ _ _ _
 72
   65
 73
    2
 40
9.524999999999999
 49
6.35
 74
    0
 49
-3.175
 74
    0
  0
LTYPE
  5
39
330
5
100
AcDbSymbolTableRecord
100
AcDbLinetypeTableRecord
  2
DASHEDX2
 70
    0
  3
Dashed (2x) ____  ____  ____  ____  ____  ___
 72
   65
 73
    2
 40
38.09999999999999
 49
25.4
 74
    0
 49
-12.7
 74
    0
  0
LTYPE
  5
3A
330
5
100
AcDbSymbolTableRecord
100
AcDbLinetypeTableRecord
  2
DASHDOT
 70
    0
  3
Dash dot __ . __ . __ . __ . __ . __ . __ . __
 72
   65
 73
    4
 40
25.4
 49
12.7
 74
    0
 49
-6.35
 74
    0
 49
0
 74
    0
 49
-6.35
 74
    0
  0
LTYPE
  5
3B
330
5
100
AcDbSymbolTableRecord
100
AcDbLinetypeTableRecord
  2
DASHDOTTINY
 70
    0
  3
Dash dot (.15x) _._._._._._._._._._._._._._._.
 72
   65
 73
    4
 40
3.81
 49
1.905
 74
    0
 49
-0.9525
 74
    0
 49
0
 74
    0
 49
-0.9525
 74
    0
  0
LTYPE
  5
3C
330
5
100
AcDbSymbolTableRecord
100
AcDbLinetypeTableRecord
  2
DASHDOT2
 70
    0
  3
Dash dot (.5x) _._._._._._._._._._._._._._._.
 72
   65
 73
    4
 40
12.7
 49
6.35
 74
    0
 49
-3.175
 74
    0
 49
0
 74
    0
 49
-3.175
 74
    0
  0
LTYPE
  5
3D
330
5
100
AcDbSymbolTableRecord
100
AcDbLinetypeTableRecord
  2
DASHDOTX2
 70
    0
  3
Dash dot (2x) ____  .  ____  .  ____  .  ___
 72
   65
 73
    4
 40
50.8
 49
25.4
 74
    0
 49
-12.7
 74
    0
 49
0
 74
    0
 49
-12.7
 74
    0
  0
LTYPE
  5
3E
330
5
100
AcDbSymbolTableRecord
100
AcDbLinetypeTableRecord
  2
DIVIDE
 70
    0
  3
Divide ____ . . ____ . . ____ . . ____ . . ____
 72
   65
 73
    6
 40
31.75
 49
12.7
 74
    0
 49
-6.35
 74
    0
 49
0
 74
    0
 49
-6.35
 74
    0
 49
0
 74
    0
 49
-6.35
 74
    0
  0
LTYPE
  5
3F
330
5
100
AcDbSymbolTableRecord
100
AcDbLinetypeTableRecord
  2
DIVIDETINY
 70
    0
  3
Divide (.15x) __..__..__..__..__..__..__..__.._
 72
   65
 73
    6
 40
4.7625
 49
1.905
 74
    0
 49
-0.9525
 74
    0
 49
0
 74
    0
 49
-0.9525
 74
    0
 49
0
 74
    0
 49
-0.9525
 74
    0
  0
LTYPE
  5
40
330
5
100
AcDbSymbolTableRecord
100
AcDbLinetypeTableRecord
  2
DIVIDE2
 70
    0
  3
Divide (.5x) __..__..__..__..__..__..__..__.._
 72
   65
 73
    6
 40
15.875
 49
6.35
 74
    0
 49
-3.175
 74
    0
 49
0
 74
    0
 49
-3.175
 74
    0
 49
0
 74
    0
 49
-3.175
 74
    0
  0
LTYPE
  5
41
330
5
100
AcDbSymbolTableRecord
100
AcDbLinetypeTableRecord
  2
DIVIDEX2
 70
    0
  3
Divide (2x) ________  .  .  ________  .  .  _
 72
   65
 73
    6
 40
63.5
 49
25.4
 74
    0
 49
-12.7
 74
    0
 49
0
 74
    0
 49
-12.7
 74
    0
 49
0
 74
    0
 49
-12.7
 74
    0
  0
LTYPE
  5
42
330
5
100
AcDbSymbolTableRecord
100
AcDbLinetypeTableRecord
  2
BORDER
 70
    0
  3
Border __ __ . __ __ . __ __ . __ __ . __ __ .
 72
   65
 73
    6
 40
44.45
 49
12.7
 74
    0
 49
-6.35
 74
    0
 49
12.7
 74
    0
 49
-6.35
 74
    0
 49
0
 74
    0
 49
-6.35
 74
    0
  0
LTYPE
  5
43
330
5
100
AcDbSymbolTableRecord
100
AcDbLinetypeTableRecord
  2
BORDERTINY
 70
    0
  3
Border (.15x) __.__.__.__.__.__.__.__.__.__.__.
 72
   65
 73
    6
 40
6.6675
 49
1.905
 74
    0
 49
-0.9525
 74
    0
 49
1.905
 74
    0
 49
-0.9525
 74
    0
 49
0
 74
    0
 49
-0.9525
 74
    0
  0
LTYPE
  5
44
330
5
100
AcDbSymbolTableRecord
100
AcDbLinetypeTableRecord
  2
BORDER2
 70
    0
  3
Border (.5x) __.__.__.__.__.__.__.__.__.__.__.
 72
   65
 73
    6
 40
22.225
 49
6.35
 74
    0
 49
-3.175
 74
    0
 49
6.35
 74
    0
 49
-3.175
 74
    0
 49
0
 74
    0
 49
-3.175
 74
    0
  0
LTYPE
  5
45
330
5
100
AcDbSymbolTableRecord
100
AcDbLinetypeTableRecord
  2
BORDERX2
 70
    0
  3
Border (2x) ____  ____  .  ____  ____  .  ___
 72
   65
 73
    6
 40
88.89999999999999
 49
25.4
 74
    0
 49
-12.7
 74
    0
 49
25.4
 74
    0
 49
-12.7
 74
    0
 49
0
 74
    0
 49
-12.7
 74
    0
  0
LTYPE
  5
46
330
5
100
AcDbSymbolTableRecord
100
AcDbLinetypeTableRecord
  2
CENTER
 70
    0
  3
Center ____ _ ____ _ ____ _ ____ _ ____ _ ____
 72
   65
 73
    4
 40
50.8
 49
31.75
 74
    0
 49
-6.35
 74
    0
 49
6.35
 74
    0
 49
-6.35
 74
    0
  0
LTYPE
  5
47
330
5
100
AcDbSymbolTableRecord
100
AcDbLinetypeTableRecord
  2
CENTERTINY
 70
    0
  3
Center (.15x) ___ _ ___ _ ___ _ ___ _ ___ _ ___
 72
   65
 73
    4
 40
7.619999999999999
 49
4.7625
 74
    0
 49
-0.9525
 74
    0
 49
0.9525
 74
    0
 49
-0.9525
 74
    0
  0
LTYPE
  5
48
330
5
100
AcDbSymbolTableRecord
100
AcDbLinetypeTableRecord
  2
CENTER2
 70
    0
  3
Center (.5x) ___ _ ___ _ ___ _ ___ _ ___ _ ___
 72
   65
 73
    4
 40
28.575
 49
19.05
 74
    0
 49
-3.175
 74
    0
 49
3.175
 74
    0
 49
-3.175
 74
    0
  0
LTYPE
  5
49
330
5
100
AcDbSymbolTableRecord
100
AcDbLinetypeTableRecord
  2
CENTERX2
 70
    0
  3
Center (2x) ________  __  ________  __  _____
 72
   65
 73
    4
 40
101.6
 49
63.5
 74
    0
 49
-12.7
 74
    0
 49
12.7
 74
    0
 49
-12.7
 74
    0
  0
ENDTAB
  0
TABLE
  2
LAYER
  5
2
330
0
100
AcDbSymbolTable
 70
    1
  0
LAYER
  5
10
330
2
100
AcDbSymbolTableRecord
100
AcDbLayerTableRecord
  2
0
 70
    0
 62
    7
  6
CONTINUOUS
370
    0
390
F
  0
LAYER
  5
4A
330
2
100
AcDbSymbolTableRecord
100
AcDbLayerTableRecord
  2
80cm
 70
    1
 62
    1
  6
CONTINUOUS
370
    0
390
F
  0
LAYER
  5
4B
330
2
100
AcDbSymbolTableRecord
100
AcDbLayerTableRecord
  2
assi
 70
    1
 62
    3
  6
DASHED2
370
    0
390
F
  0
LAYER
  5
4C
330
2
100
AcDbSymbolTableRecord
100
AcDbLayerTableRecord
  2
gia_tagliati
 70
    0
 62
   96
420
32768
  6
DASHDOT2
370
    0
390
F
  0
LAYER
  5
4D
330
2
100
AcDbSymbolTableRecord
100
AcDbLayerTableRecord
  2
interno_scalini
 70
    0
 62
    5
  6
DASHEDTINY
370
   -3
390
F
  0
LAYER
  5
4E
330
2
100
AcDbSymbolTableRecord
100
AcDbLayerTableRecord
  2
pannello
 70
    0
 62
    7
  6
CONTINUOUS
370
    0
390
F
  0
LAYER
  5
4F
330
2
100
AcDbSymbolTableRecord
100
AcDbLayerTableRecord
  2
quote
 70
    0
 62
    4
  6
CONTINUOUS
370
    0
390
F
  0
LAYER
  5
50
330
2
100
AcDbSymbolTableRecord
100
AcDbLayerTableRecord
  2
scalino
 70
    0
 62
  176
420
  128
  6
CONTINUOUS
370
    0
390
F
  0
LAYER
  5
51
330
2
100
AcDbSymbolTableRecord
100
AcDbLayerTableRecord
  2
struttura
 70
    1
 62
    7
  6
CONTINUOUS
370
    0
390
F
  0
ENDTAB
  0
TABLE
  2
STYLE
  5
3
330
0
100
AcDbSymbolTable
 70
    3
  0
STYLE
  5
52
330
2
100
AcDbSymbolTableRecord
100
AcDbTextStyleTableRecord
  2
Standard
 70
    0
 40
0
 41
1
 50
0
 71
    0
 42
1
  3
txt
  4

  0
ENDTAB
  0
TABLE
  2
VIEW
  5
6
330
0
100
AcDbSymbolTable
 70
    0
  0
ENDTAB
  0
TABLE
  2
UCS
  5
7
330
0
100
AcDbSymbolTable
 70
    0
  0
ENDTAB
  0
TABLE
  2
APPID
  5
9
330
0
100
AcDbSymbolTable
 70
    1
  0
APPID
  5
12
330
9
100
AcDbSymbolTableRecord
100
AcDbRegAppTableRecord
  2
ACAD
 70
    0
  0
APPID
  5
53
330
9
100
AcDbSymbolTableRecord
100
AcDbRegAppTableRecord
  2
LibreCad
 70
    0
  0
ENDTAB
  0
TABLE
  2
DIMSTYLE
  5
A
330
0
100
AcDbSymbolTable
 70
    1
100
AcDbDimStyleTable
 71
    1
  0
DIMSTYLE
105
54
330
A
100
AcDbSymbolTableRecord
100
AcDbDimStyleTableRecord
  2
Standard
 70
    0
 40
7
 41
2.5
 42
0.625
 43
0.38
 44
1.25
 45
0
 46
0
 47
0
 48
0
 49
1
140
5
141
0.09
142
0
143
25.4
144
1
145
0
146
1
147
0.625
148
0
 71
    0
 72
    0
 73
    0
 74
    1
 75
    0
 76
    0
 77
    0
 78
    8
 79
    0
170
    0
171
    2
172
    0
173
    0
174
    0
175
    0
176
    0
177
    0
178
    0
179
    0
271
    2
272
    4
273
    2
274
    2
275
    0
276
    0
277
    2
278
   44
279
    0
280
    0
281
    0
282
    0
283
    1
284
    0
285
    0
286
    0
288
    0
289
    3
340
standard
341

371
   -2
372
   -2
  0
ENDTAB
  0
TABLE
  2
BLOCK_RECORD
  5
1
330
0
100
AcDbSymbolTable
 70
    2
  0
BLOCK_RECORD
  5
1F
330
1
100
AcDbSymbolTableRecord
100
AcDbBlockTableRecord
  2
*Model_Space
 70
    0
280
    1
281
    0
  0
BLOCK_RECORD
  5
1E
330
1
100
AcDbSymbolTableRecord
100
AcDbBlockTableRecord
  2
*Paper_Space
 70
    0
280
    1
281
    0
  0
BLOCK_RECORD
  5
55
330
1
100
AcDbSymbolTableRecord
100
AcDbBlockTableRecord
  2
*D13
 70
    0
280
    1
281
    0
  0
BLOCK_RECORD
  5
58
330
1
100
AcDbSymbolTableRecord
100
AcDbBlockTableRecord
  2
*D1
 70
    0
280
    1
281
    0
  0
BLOCK_RECORD
  5
5B
330
1
100
AcDbSymbolTableRecord
100
AcDbBlockTableRecord
  2
*D14
 70
    0
280
    1
281
    0
  0
BLOCK_RECORD
  5
5E
330
1
100
AcDbSymbolTableRecord
100
AcDbBlockTableRecord
  2
*D5
 70
    0
280
    1
281
    0
  0
BLOCK_RECORD
  5
61
330
1
100
AcDbSymbolTableRecord
100
AcDbBlockTableRecord
  2
*D27
 70
    0
280
    1
281
    0
  0
BLOCK_RECORD
  5
64
330
1
100
AcDbSymbolTableRecord
100
AcDbBlockTableRecord
  2
*D16
 70
    0
280
    1
281
    0
  0
BLOCK_RECORD
  5
67
330
1
100
AcDbSymbolTableRecord
100
AcDbBlockTableRecord
  2
*D18
 70
    0
280
    1
281
    0
  0
BLOCK_RECORD
  5
6A
330
1
100
AcDbSymbolTableRecord
100
AcDbBlockTableRecord
  2
*D21
 70
    0
280
    1
281
    0
  0
BLOCK_RECORD
  5
6D
330
1
100
AcDbSymbolTableRecord
100
AcDbBlockTableRecord
  2
*D8
 70
    0
280
    1
281
    0
  0
BLOCK_RECORD
  5
70
330
1
100
AcDbSymbolTableRecord
100
AcDbBlockTableRecord
  2
*D7
 70
    0
280
    1
281
    0
  0
BLOCK_RECORD
  5
73
330
1
100
AcDbSymbolTableRecord
100
AcDbBlockTableRecord
  2
*D9
 70
    0
280
    1
281
    0
  0
BLOCK_RECORD
  5
76
330
1
100
AcDbSymbolTableRecord
100
AcDbBlockTableRecord
  2
*D2
 70
    0
280
    1
281
    0
  0
BLOCK_RECORD
  5
79
330
1
100
AcDbSymbolTableRecord
100
AcDbBlockTableRecord
  2
*D15
 70
    0
280
    1
281
    0
  0
BLOCK_RECORD
  5
7C
330
1
100
AcDbSymbolTableRecord
100
AcDbBlockTableRecord
  2
*D25
 70
    0
280
    1
281
    0
  0
BLOCK_RECORD
  5
7F
330
1
100
AcDbSymbolTableRecord
100
AcDbBlockTableRecord
  2
*D11
 70
    0
280
    1
281
    0
  0
BLOCK_RECORD
  5
82
330
1
100
AcDbSymbolTableRecord
100
AcDbBlockTableRecord
  2
*D22
 70
    0
280
    1
281
    0
  0
BLOCK_RECORD
  5
85
330
1
100
AcDbSymbolTableRecord
100
AcDbBlockTableRecord
  2
*D12
 70
    0
280
    1
281
    0
  0
BLOCK_RECORD
  5
88
330
1
100
AcDbSymbolTableRecord
100
AcDbBlockTableRecord
  2
*D20
 70
    0
280
    1
281
    0
  0
BLOCK_RECORD
  5
8B
330
1
100
AcDbSymbolTableRecord
100
AcDbBlockTableRecord
  2
*D23
 70
    0
280
    1
281
    0
  0
BLOCK_RECORD
  5
8E
330
1
100
AcDbSymbolTableRecord
100
AcDbBlockTableRecord
  2
*D26
 70
    0
280
    1
281
    0
  0
BLOCK_RECORD
  5
91
330
1
100
AcDbSymbolTableRecord
100
AcDbBlockTableRecord
  2
*D17
 70
    0
280
    1
281
    0
  0
BLOCK_RECORD
  5
94
330
1
100
AcDbSymbolTableRecord
100
AcDbBlockTableRecord
  2
*D3
 70
    0
280
    1
281
    0
  0
BLOCK_RECORD
  5
97
330
1
100
AcDbSymbolTableRecord
100
AcDbBlockTableRecord
  2
*D24
 70
    0
280
    1
281
    0
  0
BLOCK_RECORD
  5
9A
330
1
100
AcDbSymbolTableRecord
100
AcDbBlockTableRecord
  2
*D4
 70
    0
280
    1
281
    0
  0
BLOCK_RECORD
  5
9D
330
1
100
AcDbSymbolTableRecord
100
AcDbBlockTableRecord
  2
*D19
 70
    0
280
    1
281
    0
  0
BLOCK_RECORD
  5
A0
330
1
100
AcDbSymbolTableRecord
100
AcDbBlockTableRecord
  2
*D6
 70
    0
280
    1
281
    0
  0
BLOCK_RECORD
  5
A3
330
1
100
AcDbSymbolTableRecord
100
AcDbBlockTableRecord
  2
*D10
 70
    0
280
    1
281
    0
  0
ENDTAB
  0
ENDSEC
  0
SECTION
  2
BLOCKS
  0
BLOCK
  5
20
330
1F
100
AcDbEntity
  8
0
100
AcDbBlockBegin
  2
*Model_Space
 70
    0
 10
0
 20
0
 30
0
  3
*Model_Space
  1

  0
ENDBLK
  5
21
330
1F
100
AcDbEntity
  8
0
100
AcDbBlockEnd
  0
BLOCK
  5
1C
330
1B
100
AcDbEntity
  8
0
100
AcDbBlockBegin
  2
*Paper_Space
 70
    0
 10
0
 20
0
 30
0
  3
*Paper_Space
  1

  0
ENDBLK
  5
1D
330
1F
100
AcDbEntity
  8
0
100
AcDbBlockEnd
  0
BLOCK
  5
56
330
55
100
AcDbEntity
  8
0
100
AcDbBlockBegin
  2
*D13
 70
    1
 10
0
 20
0
  3
*D13
  1

  0
LINE
  5
A6
100
AcDbEntity
  8
quote
  6
ByBlock
 62
    0
370
   -2
100
AcDbLine
 10
4495.625
 20
648.8067339299969
 11
4391.25
 21
648.8067339299969
  0
LINE
  5
A7
100
AcDbEntity
  8
quote
  6
ByBlock
 62
    0
370
   -2
100
AcDbLine
 10
4495.625
 20
938.4320187912267
 11
4391.25
 21
938.4320187912267
  0
LINE
  5
A8
100
AcDbEntity
  8
quote
  6
ByBlock
 62
    0
370
   -2
100
AcDbLine
 10
4400
 20
648.8067339299969
 11
4400
 21
938.4320187912267
  0
SOLID
  5
A9
100
AcDbEntity
  8
quote
  6
ByBlock
 62
    0
370
   -2
100
AcDbTrace
 10
4400
 20
648.8067339299969
 30
0
 11
4397.08600739559
 21
666.3067339299969
 31
0
 12
4402.91399260441
 22
666.3067339299969
 32
0
 13
4402.91399260441
 23
666.3067339299969
 33
0
  0
SOLID
  5
AA
100
AcDbEntity
  8
quote
  6
ByBlock
 62
    0
370
   -2
100
AcDbTrace
 10
4400
 20
938.4320187912267
 30
0
 11
4402.91399260441
 21
920.9320187912267
 31
0
 12
4397.08600739559
 22
920.9320187912267
 32
0
 13
4397.08600739559
 23
920.9320187912267
 33
0
  0
MTEXT
  5
AB
100
AcDbEntity
  8
quote
  6
CONTINUOUS
 62
    0
370
   -2
100
AcDbMText
 10
4378.125
 20
793.6193763606118
 30
0
 40
35
 41
138.0555555555599
 71
    5
 72
    1
  1
289,63
  7
standard
210
0
220
0
230
1
 50
90
 73
    2
 44
1
  0
ENDBLK
  5
57
330
55
100
AcDbEntity
  8
0
100
AcDbBlockEnd
  0
BLOCK
  5
59
330
58
100
AcDbEntity
  8
0
100
AcDbBlockBegin
  2
*D1
 70
    1
 10
0
 20
0
  3
*D1
  1

  0
SOLID
  5
AC
100
AcDbEntity
  8
quote
  6
ByBlock
 62
    0
370
   -2
100
AcDbTrace
 10
1294.685808654214
 20
-554.8653465660921
 30
0
 11
1277.452892706104
 21
-550.6501406608094
 31
0
 12
1279.748648551692
 22
-545.2933770211039
 32
0
 13
1279.748648551692
 23
-545.2933770211039
 33
0
  0
LINE
  5
AD
100
AcDbEntity
  8
quote
  6
ByBlock
 62
    0
370
   -2
100
AcDbLine
 10
0
 20
0
 11
1294.685808654214
 21
-554.8653465660932
  0
MTEXT
  5
AE
100
AcDbEntity
  8
quote
  6
CONTINUOUS
 62
    0
370
   -2
100
AcDbMText
 10
655.9598889835261
 20
-257.3263757514016
 30
0
 40
35
 41
161.3888888888911
 71
    5
 72
    1
  1
1408,58
  7
standard
210
0
220
0
230
1
 50
336.8014094863518
 73
    2
 44
1
  0
ENDBLK
  5
5A
330
58
100
AcDbEntity
  8
0
100
AcDbBlockEnd
  0
BLOCK
  5
5C
330
5B
100
AcDbEntity
  8
0
100
AcDbBlockBegin
  2
*D14
 70
    1
 10
0
 20
0
  3
*D14
  1

  0
LINE
  5
AF
100
AcDbEntity
  8
quote
  6
ByBlock
 62
    0
370
   -2
100
AcDbLine
 10
4495.625
 20
938.4320187912269
 11
4391.25
 21
938.4320187912269
  0
LINE
  5
B0
100
AcDbEntity
  8
quote
  6
ByBlock
 62
    0
370
   -2
100
AcDbLine
 10
4495.625
 20
1250
 11
4391.25
 21
1250
  0
LINE
  5
B1
100
AcDbEntity
  8
quote
  6
ByBlock
 62
    0
370
   -2
100
AcDbLine
 10
4400
 20
938.4320187912269
 11
4400
 21
1250
  0
SOLID
  5
B2
100
AcDbEntity
  8
quote
  6
ByBlock
 62
    0
370
   -2
100
AcDbTrace
 10
4400
 20
938.4320187912269
 30
0
 11
4397.08600739559
 21
955.9320187912269
 31
0
 12
4402.91399260441
 22
955.9320187912269
 32
0
 13
4402.91399260441
 23
955.9320187912269
 33
0
  0
SOLID
  5
B3
100
AcDbEntity
  8
quote
  6
ByBlock
 62
    0
370
   -2
100
AcDbTrace
 10
4400
 20
1250
 30
0
 11
4402.91399260441
 21
1232.5
 31
0
 12
4397.08600739559
 22
1232.5
 32
0
 13
4397.08600739559
 23
1232.5
 33
0
  0
MTEXT
  5
B4
100
AcDbEntity
  8
quote
  6
CONTINUOUS
 62
    0
370
   -2
100
AcDbMText
 10
4378.125
 20
1094.216009395614
 30
0
 40
35
 41
122.5000000000043
 71
    5
 72
    1
  1
311,57
  7
standard
210
0
220
0
230
1
 50
90
 73
    2
 44
1
  0
ENDBLK
  5
5D
330
5B
100
AcDbEntity
  8
0
100
AcDbBlockEnd
  0
BLOCK
  5
5F
330
5E
100
AcDbEntity
  8
0
100
AcDbBlockBegin
  2
*D5
 70
    1
 10
0
 20
0
  3
*D5
  1

  0
LINE
  5
B5
100
AcDbEntity
  8
quote
  6
ByBlock
 62
    0
370
   -2
100
AcDbLine
 10
-460.7232440721079
 20
-129.6668926305606
 11
-374.1916109357776
 21
-123.0592952001165
  0
LINE
  5
B6
100
AcDbEntity
  8
quote
  6
ByBlock
 62
    0
370
   -2
100
AcDbLine
 10
-475.0695612147213
 20
58.20930063181171
 11
-388.537928078391
 21
64.81689806225582
  0
LINE
  5
B7
100
AcDbEntity
  8
quote
  6
ByBlock
 62
    0
370
   -2
100
AcDbLine
 10
-382.9162116671411
 20
-123.7255099389899
 11
-397.2625288097545
 21
64.15068332338242
  0
SOLID
  5
B8
100
AcDbEntity
  8
quote
  6
ByBlock
 62
    0
370
   -2
100
AcDbTrace
 10
-382.9162116671411
 20
-123.7255099389899
 30
0
 11
-387.1541750886161
 21
-106.4981764559231
 31
0
 12
-381.3431072011596
 22
-106.0544404966029
 32
0
 13
-381.3431072011596
 23
-106.0544404966029
 33
0
  0
SOLID
  5
B9
100
AcDbEntity
  8
quote
  6
ByBlock
 62
    0
370
   -2
100
AcDbTrace
 10
-397.2625288097545
 20
64.15068332338242
 30
0
 11
-393.0245653882795
 21
46.9233498403156
 31
0
 12
-398.835633275736
 22
46.4796138809954
 32
0
 13
-398.835633275736
 23
46.4796138809954
 33
0
  0
MTEXT
  5
BA
100
AcDbEntity
  8
quote
  6
CONTINUOUS
 62
    0
370
   -2
100
AcDbMText
 10
-368.2778684100392
 20
-28.1218764606203
 30
0
 40
35
 41
134.1666666666667
 71
    5
 72
    1
  1
188,42
  7
standard
210
0
220
0
230
1
 50
274.3666594207307
 73
    2
 44
1
  0
ENDBLK
  5
60
330
5E
100
AcDbEntity
  8
0
100
AcDbBlockEnd
  0
BLOCK
  5
62
330
61
100
AcDbEntity
  8
0
100
AcDbBlockBegin
  2
*D27
 70
    1
 10
0
 20
0
  3
*D27
  1

  0
LINE
  5
BB
100
AcDbEntity
  8
quote
  6
ByBlock
 62
    0
370
   -2
100
AcDbLine
 10
5751.674240016598
 20
135.0817539183652
 11
5843.630573522586
 21
357.0839814146252
  0
LINE
  5
BC
100
AcDbEntity
  8
quote
  6
ByBlock
 62
    0
370
   -2
100
AcDbLine
 10
6068.032256429388
 20
4.041972954736875
 11
6159.988589935377
 21
226.0442004509969
  0
LINE
  5
BD
100
AcDbEntity
  8
quote
  6
ByBlock
 62
    0
370
   -2
100
AcDbLine
 10
5840.282093489392
 20
349.0000355051515
 11
6156.640109902182
 21
217.9602545415231
  0
SOLID
  5
BE
100
AcDbEntity
  8
quote
  6
ByBlock
 62
    0
370
   -2
100
AcDbTrace
 10
5840.282093489392
 20
349.0000355051515
 30
0
 11
5857.565122000081
 21
344.9952535638659
 31
0
 12
5855.334848616597
 22
339.6108973136588
 32
0
 13
5855.334848616597
 23
339.6108973136588
 33
0
  0
SOLID
  5
BF
100
AcDbEntity
  8
quote
  6
ByBlock
 62
    0
370
   -2
100
AcDbTrace
 10
6156.640109902182
 20
217.9602545415231
 30
0
 11
6139.357081391493
 21
221.9650364828087
 31
0
 12
6141.587354774977
 22
227.3493927330158
 32
0
 13
6141.587354774977
 23
227.3493927330158
 33
0
  0
MTEXT
  5
C0
100
AcDbEntity
  8
quote
  6
CONTINUOUS
 62
    0
370
   -2
100
AcDbMText
 10
6006.832301778772
 20
303.6900097970217
 30
0
 40
35
 41
145.8333333333355
 71
    5
 72
    1
  1
342,42
  7
standard
210
0
220
0
230
1
 50
337.4999999999999
 73
    2
 44
1
  0
ENDBLK
  5
63
330
61
100
AcDbEntity
  8
0
100
AcDbBlockEnd
  0
BLOCK
  5
65
330
64
100
AcDbEntity
  8
0
100
AcDbBlockBegin
  2
*D16
 70
    1
 10
0
 20
0
  3
*D16
  1

  0
LINE
  5
C1
100
AcDbEntity
  8
quote
  6
ByBlock
 62
    0
370
   -2
100
AcDbLine
 10
6066.358016412791
 20
-4.375
 11
6066.358016412791
 21
-108.75
  0
LINE
  5
C2
100
AcDbEntity
  8
quote
  6
ByBlock
 62
    0
370
   -2
100
AcDbLine
 10
6100
 20
-4.375
 11
6100
 21
-108.75
  0
LINE
  5
C3
100
AcDbEntity
  8
quote
  6
ByBlock
 62
    0
370
   -2
100
AcDbLine
 10
6031.358016412791
 20
-100
 11
6135
 21
-100
  0
SOLID
  5
C4
100
AcDbEntity
  8
quote
  6
ByBlock
 62
    0
370
   -2
100
AcDbTrace
 10
6066.358016412791
 20
-100
 30
0
 11
6048.858016412791
 21
-102.9139926044099
 31
0
 12
6048.858016412791
 22
-97.08600739559012
 32
0
 13
6048.858016412791
 23
-97.08600739559012
 33
0
  0
SOLID
  5
C5
100
AcDbEntity
  8
quote
  6
ByBlock
 62
    0
370
   -2
100
AcDbTrace
 10
6100
 20
-100
 30
0
 11
6117.5
 21
-97.08600739559012
 31
0
 12
6117.5
 22
-102.9139926044099
 32
0
 13
6117.5
 23
-102.9139926044099
 33
0
  0
MTEXT
  5
C6
100
AcDbEntity
  8
quote
  6
CONTINUOUS
 62
    0
370
   -2
100
AcDbMText
 10
6161.736111111115
 20
-78.125
 30
0
 40
35
 41
114.7222222222287
 71
    5
 72
    1
  1
33,64
  7
standard
210
0
220
0
230
1
 50
0
 73
    2
 44
1
  0
ENDBLK
  5
66
330
64
100
AcDbEntity
  8
0
100
AcDbBlockEnd
  0
BLOCK
  5
68
330
67
100
AcDbEntity
  8
0
100
AcDbBlockBegin
  2
*D18
 70
    1
 10
0
 20
0
  3
*D18
  1

  0
LINE
  5
C7
100
AcDbEntity
  8
quote
  6
ByBlock
 62
    0
370
   -2
100
AcDbLine
 10
6066.358016412791
 20
-4.375
 11
6066.358016412791
 21
-208.7499999999991
  0
LINE
  5
C8
100
AcDbEntity
  8
quote
  6
ByBlock
 62
    0
370
   -2
100
AcDbLine
 10
7000
 20
-4.375000000000892
 11
7000
 21
-208.75
  0
LINE
  5
C9
100
AcDbEntity
  8
quote
  6
ByBlock
 62
    0
370
   -2
100
AcDbLine
 10
6066.358016412791
 20
-199.9999999999991
 11
7000
 21
-200
  0
SOLID
  5
CA
100
AcDbEntity
  8
quote
  6
ByBlock
 62
    0
370
   -2
100
AcDbTrace
 10
6066.358016412791
 20
-199.9999999999991
 30
0
 11
6083.858016412791
 21
-197.0860073955893
 31
0
 12
6083.858016412791
 22
-202.913992604409
 32
0
 13
6083.858016412791
 23
-202.913992604409
 33
0
  0
SOLID
  5
CB
100
AcDbEntity
  8
quote
  6
ByBlock
 62
    0
370
   -2
100
AcDbTrace
 10
7000
 20
-200
 30
0
 11
6982.5
 21
-202.9139926044099
 31
0
 12
6982.5
 22
-197.0860073955901
 32
0
 13
6982.5
 23
-197.0860073955901
 33
0
  0
MTEXT
  5
CC
100
AcDbEntity
  8
quote
  6
CONTINUOUS
 62
    0
370
   -2
100
AcDbMText
 10
6533.179008206394
 20
-178.1249999999995
 30
0
 40
35
 41
141.9444444444531
 71
    5
 72
    1
  1
933,64
  7
standard
210
0
220
0
230
1
 50
359.9999999999999
 73
    2
 44
1
  0
ENDBLK
  5
69
330
67
100
AcDbEntity
  8
0
100
AcDbBlockEnd
  0
BLOCK
  5
6B
330
6A
100
AcDbEntity
  8
0
100
AcDbBlockBegin
  2
*D21
 70
    1
 10
0
 20
0
  3
*D21
  1

  0
LINE
  5
CD
100
AcDbEntity
  8
quote
  6
ByBlock
 62
    0
370
   -2
100
AcDbLine
 10
4501.674240016598
 20
652.8487068847338
 11
4671.448032827787
 21
1062.71890002503
  0
LINE
  5
CE
100
AcDbEntity
  8
quote
  6
ByBlock
 62
    0
370
   -2
100
AcDbLine
 10
4559.148779946204
 20
629.041972954737
 11
4728.922572757393
 21
1038.912166095033
  0
LINE
  5
CF
100
AcDbEntity
  8
quote
  6
ByBlock
 62
    0
370
   -2
100
AcDbLine
 10
4668.099552794592
 20
1054.634954115556
 11
4725.574092724199
 21
1030.828220185559
  0
SOLID
  5
D0
100
AcDbEntity
  8
quote
  6
ByBlock
 62
    0
370
   -2
100
AcDbTrace
 10
4668.099552794592
 20
1054.634954115556
 30
0
 11
4685.382581305282
 21
1050.63017217427
 31
0
 12
4683.152307921798
 22
1045.245815924063
 32
0
 13
4683.152307921798
 23
1045.245815924063
 33
0
  0
SOLID
  5
D1
100
AcDbEntity
  8
quote
  6
ByBlock
 62
    0
370
   -2
100
AcDbTrace
 10
4725.574092724199
 20
1030.828220185559
 30
0
 11
4708.291064213509
 21
1034.833002126845
 31
0
 12
4710.521337596993
 22
1040.217358377052
 32
0
 13
4710.521337596993
 23
1040.217358377052
 33
0
  0
MTEXT
  5
D2
100
AcDbEntity
  8
quote
  6
CONTINUOUS
 62
    0
370
   -2
100
AcDbMText
 10
4785.592725006602
 20
1029.645018080501
 30
0
 40
35
 41
103.0555555555577
 71
    5
 72
    1
  1
62,21
  7
standard
210
0
220
0
230
1
 50
337.5000000000002
 73
    2
 44
1
  0
ENDBLK
  5
6C
330
6A
100
AcDbEntity
  8
0
100
AcDbBlockEnd
  0
BLOCK
  5
6E
330
6D
100
AcDbEntity
  8
0
100
AcDbBlockBegin
  2
*D8
 70
    1
 10
0
 20
0
  3
*D8
  1

  0
LINE
  5
D3
100
AcDbEntity
  8
quote
  6
ByBlock
 62
    0
370
   -2
100
AcDbLine
 10
5400
 20
-4.375000000000597
 11
5400
 21
-108.7500000000006
  0
LINE
  5
D4
100
AcDbEntity
  8
quote
  6
ByBlock
 62
    0
370
   -2
100
AcDbLine
 10
6066.358016412791
 20
-4.375
 11
6066.358016412791
 21
-108.75
  0
LINE
  5
D5
100
AcDbEntity
  8
quote
  6
ByBlock
 62
    0
370
   -2
100
AcDbLine
 10
5400
 20
-100.0000000000006
 11
6066.358016412791
 21
-100
  0
SOLID
  5
D6
100
AcDbEntity
  8
quote
  6
ByBlock
 62
    0
370
   -2
100
AcDbTrace
 10
5400
 20
-100.0000000000006
 30
0
 11
5417.5
 21
-97.0860073955907
 31
0
 12
5417.5
 22
-102.9139926044105
 32
0
 13
5417.5
 23
-102.9139926044105
 33
0
  0
SOLID
  5
D7
100
AcDbEntity
  8
quote
  6
ByBlock
 62
    0
370
   -2
100
AcDbTrace
 10
6066.358016412791
 20
-100
 30
0
 11
6048.858016412791
 21
-102.9139926044099
 31
0
 12
6048.858016412791
 22
-97.08600739559013
 32
0
 13
6048.858016412791
 23
-97.08600739559013
 33
0
  0
MTEXT
  5
D8
100
AcDbEntity
  8
quote
  6
CONTINUOUS
 62
    0
370
   -2
100
AcDbMText
 10
5733.179008206394
 20
-78.1250000000003
 30
0
 40
35
 41
138.0555555555664
 71
    5
 72
    1
  1
666,36
  7
standard
210
0
220
0
230
1
 50
5.088887490341627e-14
 73
    2
 44
1
  0
ENDBLK
  5
6F
330
6D
100
AcDbEntity
  8
0
100
AcDbBlockEnd
  0
BLOCK
  5
71
330
70
100
AcDbEntity
  8
0
100
AcDbBlockBegin
  2
*D7
 70
    1
 10
0
 20
0
  3
*D7
  1

  0
LINE
  5
D9
100
AcDbEntity
  8
quote
  6
ByBlock
 62
    0
370
   -2
100
AcDbLine
 10
4500
 20
-4.375
 11
4500
 21
-108.75
  0
LINE
  5
DA
100
AcDbEntity
  8
quote
  6
ByBlock
 62
    0
370
   -2
100
AcDbLine
 10
5400
 20
-4.375
 11
5400
 21
-108.75
  0
LINE
  5
DB
100
AcDbEntity
  8
quote
  6
ByBlock
 62
    0
370
   -2
100
AcDbLine
 10
4500
 20
-100
 11
5400
 21
-100
  0
SOLID
  5
DC
100
AcDbEntity
  8
quote
  6
ByBlock
 62
    0
370
   -2
100
AcDbTrace
 10
4500
 20
-100
 30
0
 11
4517.5
 21
-97.08600739559012
 31
0
 12
4517.5
 22
-102.9139926044099
 32
0
 13
4517.5
 23
-102.9139926044099
 33
0
  0
SOLID
  5
DD
100
AcDbEntity
  8
quote
  6
ByBlock
 62
    0
370
   -2
100
AcDbTrace
 10
5400
 20
-100
 30
0
 11
5382.5
 21
-102.9139926044099
 31
0
 12
5382.5
 22
-97.08600739559012
 32
0
 13
5382.5
 23
-97.08600739559012
 33
0
  0
MTEXT
  5
DE
100
AcDbEntity
  8
quote
  6
CONTINUOUS
 62
    0
370
   -2
100
AcDbMText
 10
4950
 20
-78.125
 30
0
 40
35
 41
70.00000000000219
 71
    5
 72
    1
  1
900
  7
standard
210
0
220
0
230
1
 50
0
 73
    2
 44
1
  0
ENDBLK
  5
72
330
70
100
AcDbEntity
  8
0
100
AcDbBlockEnd
  0
BLOCK
  5
74
330
73
100
AcDbEntity
  8
0
100
AcDbBlockBegin
  2
*D9
 70
    1
 10
0
 20
0
  3
*D9
  1

  0
LINE
  5
DF
100
AcDbEntity
  8
quote
  6
ByBlock
 62
    0
370
   -2
100
AcDbLine
 10
4500
 20
-4.375
 11
4500
 21
-208.75
  0
LINE
  5
E0
100
AcDbEntity
  8
quote
  6
ByBlock
 62
    0
370
   -2
100
AcDbLine
 10
6066.358016412791
 20
-4.375
 11
6066.358016412791
 21
-208.75
  0
LINE
  5
E1
100
AcDbEntity
  8
quote
  6
ByBlock
 62
    0
370
   -2
100
AcDbLine
 10
4500
 20
-200
 11
6066.358016412791
 21
-200
  0
SOLID
  5
E2
100
AcDbEntity
  8
quote
  6
ByBlock
 62
    0
370
   -2
100
AcDbTrace
 10
4500
 20
-200
 30
0
 11
4517.5
 21
-197.0860073955901
 31
0
 12
4517.5
 22
-202.9139926044099
 32
0
 13
4517.5
 23
-202.9139926044099
 33
0
  0
SOLID
  5
E3
100
AcDbEntity
  8
quote
  6
ByBlock
 62
    0
370
   -2
100
AcDbTrace
 10
6066.358016412791
 20
-200
 30
0
 11
6048.858016412791
 21
-202.9139926044099
 31
0
 12
6048.858016412791
 22
-197.0860073955901
 32
0
 13
6048.858016412791
 23
-197.0860073955901
 33
0
  0
MTEXT
  5
E4
100
AcDbEntity
  8
quote
  6
CONTINUOUS
 62
    0
370
   -2
100
AcDbMText
 10
5283.179008206394
 20
-178.125
 30
0
 40
35
 41
157.5000000000108
 71
    5
 72
    1
  1
1566,36
  7
standard
210
0
220
0
230
1
 50
0
 73
    2
 44
1
  0
ENDBLK
  5
75
330
73
100
AcDbEntity
  8
0
100
AcDbBlockEnd
  0
BLOCK
  5
77
330
76
100
AcDbEntity
  8
0
100
AcDbBlockBegin
  2
*D2
 70
    1
 10
0
 20
0
  3
*D2
  1

  0
SOLID
  5
E5
100
AcDbEntity
  8
quote
  6
ByBlock
 62
    0
370
   -2
100
AcDbTrace
 10
298.0848717153047
 20
-379.9341691654816
 30
0
 11
284.9901402348046
 21
-367.9646511989068
 31
0
 12
289.5753401079332
 22
-364.3672418925192
 32
0
 13
289.5753401079332
 23
-364.3672418925192
 33
0
  0
LINE
  5
E6
100
AcDbEntity
  8
quote
  6
ByBlock
 62
    0
370
   -2
100
AcDbLine
 10
0
 20
0
 11
298.0848717153047
 21
-379.9341691654816
  0
MTEXT
  5
E7
100
AcDbEntity
  8
quote
  6
CONTINUOUS
 62
    0
370
   -2
100
AcDbMText
 10
166.2527141323631
 20
-176.4644201528211
 30
0
 40
35
 41
134.1666666666667
 71
    5
 72
    1
  1
482,91
  7
standard
210
0
220
0
230
1
 50
308.1166594207308
 73
    2
 44
1
  0
ENDBLK
  5
78
330
76
100
AcDbEntity
  8
0
100
AcDbBlockEnd
  0
BLOCK
  5
7A
330
79
100
AcDbEntity
  8
0
100
AcDbBlockBegin
  2
*D15
 70
    1
 10
0
 20
0
  3
*D15
  1

  0
LINE
  5
E8
100
AcDbEntity
  8
quote
  6
ByBlock
 62
    0
370
   -2
100
AcDbLine
 10
4495.625
 20
648.8067339299969
 11
4291.25
 21
648.8067339299969
  0
LINE
  5
E9
100
AcDbEntity
  8
quote
  6
ByBlock
 62
    0
370
   -2
100
AcDbLine
 10
4495.625
 20
1250.000000000001
 11
4291.25
 21
1250.000000000001
  0
LINE
  5
EA
100
AcDbEntity
  8
quote
  6
ByBlock
 62
    0
370
   -2
100
AcDbLine
 10
4300
 20
648.8067339299969
 11
4300
 21
1250.000000000001
  0
SOLID
  5
EB
100
AcDbEntity
  8
quote
  6
ByBlock
 62
    0
370
   -2
100
AcDbTrace
 10
4300
 20
648.8067339299969
 30
0
 11
4297.08600739559
 21
666.3067339299969
 31
0
 12
4302.91399260441
 22
666.3067339299969
 32
0
 13
4302.91399260441
 23
666.3067339299969
 33
0
  0
SOLID
  5
EC
100
AcDbEntity
  8
quote
  6
ByBlock
 62
    0
370
   -2
100
AcDbTrace
 10
4300
 20
1250.000000000001
 30
0
 11
4302.91399260441
 21
1232.500000000001
 31
0
 12
4297.08600739559
 22
1232.500000000001
 32
0
 13
4297.08600739559
 23
1232.500000000001
 33
0
  0
MTEXT
  5
ED
100
AcDbEntity
  8
quote
  6
CONTINUOUS
 62
    0
370
   -2
100
AcDbMText
 10
4278.125
 20
949.4033669649989
 30
0
 40
35
 41
122.5000000000022
 71
    5
 72
    1
  1
601,19
  7
standard
210
0
220
0
230
1
 50
90
 73
    2
 44
1
  0
ENDBLK
  5
7B
330
79
100
AcDbEntity
  8
0
100
AcDbBlockEnd
  0
BLOCK
  5
7D
330
7C
100
AcDbEntity
  8
0
100
AcDbBlockBegin
  2
*D25
 70
    1
 10
0
 20
0
  3
*D25
  1

  0
LINE
  5
EE
100
AcDbEntity
  8
quote
  6
ByBlock
 62
    0
370
   -2
100
AcDbLine
 10
5452.397723740792
 20
990.9538541404237
 11
5488.80842207308
 21
903.0506524111364
  0
LINE
  5
EF
100
AcDbEntity
  8
quote
  6
ByBlock
 62
    0
370
   -2
100
AcDbLine
 10
5751.674240016598
 20
1114.918246081635
 11
5788.084938348886
 21
1027.015044352348
  0
LINE
  5
F0
100
AcDbEntity
  8
quote
  6
ByBlock
 62
    0
370
   -2
100
AcDbLine
 10
5485.459942039885
 20
911.1345983206102
 11
5784.736458315691
 21
1035.098990261822
  0
SOLID
  5
F1
100
AcDbEntity
  8
quote
  6
ByBlock
 62
    0
370
   -2
100
AcDbTrace
 10
5485.459942039885
 20
911.1345983206102
 30
0
 11
5500.512697167091
 21
920.5237365121028
 31
0
 12
5502.742970550575
 22
915.1393802618957
 32
0
 13
5502.742970550575
 23
915.1393802618957
 33
0
  0
SOLID
  5
F2
100
AcDbEntity
  8
quote
  6
ByBlock
 62
    0
370
   -2
100
AcDbTrace
 10
5784.736458315691
 20
1035.098990261822
 30
0
 11
5769.683703188486
 21
1025.709852070329
 31
0
 12
5767.453429805002
 22
1031.094208320536
 32
0
 13
5767.453429805002
 23
1031.094208320536
 33
0
  0
MTEXT
  5
F3
100
AcDbEntity
  8
quote
  6
CONTINUOUS
 62
    0
370
   -2
100
AcDbMText
 10
5626.727000094802
 20
993.3266590649004
 30
0
 40
35
 41
138.0555555555621
 71
    5
 72
    1
  1
323,93
  7
standard
210
0
220
0
230
1
 50
22.50000000000005
 73
    2
 44
1
  0
ENDBLK
  5
7E
330
7C
100
AcDbEntity
  8
0
100
AcDbBlockEnd
  0
BLOCK
  5
80
330
7F
100
AcDbEntity
  8
0
100
AcDbBlockBegin
  2
*D11
 70
    1
 10
0
 20
0
  3
*D11
  1

  0
LINE
  5
F4
100
AcDbEntity
  8
quote
  6
ByBlock
 62
    0
370
   -2
100
AcDbLine
 10
4495.625
 20
-8.914832331289869e-13
 11
4391.25
 21
-8.787009821628864e-13
  0
LINE
  5
F5
100
AcDbEntity
  8
quote
  6
ByBlock
 62
    0
370
   -2
100
AcDbLine
 10
4495.625
 20
311.5679812087736
 11
4391.25
 21
311.5679812087736
  0
LINE
  5
F6
100
AcDbEntity
  8
quote
  6
ByBlock
 62
    0
370
   -2
100
AcDbLine
 10
4400
 20
-8.797725481121403e-13
 11
4400
 21
311.5679812087736
  0
SOLID
  5
F7
100
AcDbEntity
  8
quote
  6
ByBlock
 62
    0
370
   -2
100
AcDbTrace
 10
4400
 20
-8.797725481121403e-13
 30
0
 11
4397.08600739559
 21
17.49999999999912
 31
0
 12
4402.91399260441
 22
17.49999999999912
 32
0
 13
4402.91399260441
 23
17.49999999999912
 33
0
  0
SOLID
  5
F8
100
AcDbEntity
  8
quote
  6
ByBlock
 62
    0
370
   -2
100
AcDbTrace
 10
4400
 20
311.5679812087736
 30
0
 11
4402.91399260441
 21
294.0679812087736
 31
0
 12
4397.08600739559
 22
294.0679812087736
 32
0
 13
4397.08600739559
 23
294.0679812087736
 33
0
  0
MTEXT
  5
F9
100
AcDbEntity
  8
quote
  6
CONTINUOUS
 62
    0
370
   -2
100
AcDbMText
 10
4378.125
 20
155.7839906043864
 30
0
 40
35
 41
122.5000000000043
 71
    5
 72
    1
  1
311,57
  7
standard
210
0
220
0
230
1
 50
90
 73
    2
 44
1
  0
ENDBLK
  5
81
330
7F
100
AcDbEntity
  8
0
100
AcDbBlockEnd
  0
BLOCK
  5
83
330
82
100
AcDbEntity
  8
0
100
AcDbBlockBegin
  2
*D22
 70
    1
 10
0
 20
0
  3
*D22
  1

  0
LINE
  5
FA
100
AcDbEntity
  8
quote
  6
ByBlock
 62
    0
370
   -2
100
AcDbLine
 10
6940.780383508614
 20
620.9881010987907
 11
6744.996922190086
 21
170.8855264944642
  0
LINE
  5
FB
100
AcDbEntity
  8
quote
  6
ByBlock
 62
    0
370
   -2
100
AcDbLine
 10
6998.25492343822
 20
595.9881010987905
 11
6802.471462119692
 21
145.8855264944639
  0
LINE
  5
FC
100
AcDbEntity
  8
quote
  6
ByBlock
 62
    0
370
   -2
100
AcDbLine
 10
6748.487075313646
 20
178.9093242968833
 11
6805.961615243252
 21
153.909324296883
  0
SOLID
  5
FD
100
AcDbEntity
  8
quote
  6
ByBlock
 62
    0
370
   -2
100
AcDbTrace
 10
6748.487075313646
 20
178.9093242968833
 30
0
 11
6765.696988677377
 21
174.6011651875384
 31
0
 12
6763.372353159592
 22
169.2568709119888
 32
0
 13
6763.372353159592
 23
169.2568709119888
 33
0
  0
SOLID
  5
FE
100
AcDbEntity
  8
quote
  6
ByBlock
 62
    0
370
   -2
100
AcDbTrace
 10
6805.961615243252
 20
153.909324296883
 30
0
 11
6788.751701879521
 21
158.2174834062279
 31
0
 12
6791.076337397306
 22
163.5617776817775
 32
0
 13
6791.076337397306
 23
163.5617776817775
 33
0
  0
MTEXT
  5
FF
100
AcDbEntity
  8
quote
  6
CONTINUOUS
 62
    0
370
   -2
100
AcDbMText
 10
6869.516283035349
 20
150.1194391252713
 30
0
 40
35
 41
110.8333333333377
 71
    5
 72
    1
  1
62,68
  7
standard
210
0
220
0
230
1
 50
336.4921542096225
 73
    2
 44
1
  0
ENDBLK
  5
84
330
82
100
AcDbEntity
  8
0
100
AcDbBlockEnd
  0
BLOCK
  5
86
330
85
100
AcDbEntity
  8
0
100
AcDbBlockBegin
  2
*D12
 70
    1
 10
0
 20
0
  3
*D12
  1

  0
LINE
  5
100
100
AcDbEntity
  8
quote
  6
ByBlock
 62
    0
370
   -2
100
AcDbLine
 10
4495.625
 20
311.5679812087736
 11
4391.25
 21
311.5679812087736
  0
LINE
  5
101
100
AcDbEntity
  8
quote
  6
ByBlock
 62
    0
370
   -2
100
AcDbLine
 10
4495.625
 20
648.8067339299969
 11
4391.25
 21
648.8067339299969
  0
LINE
  5
102
100
AcDbEntity
  8
quote
  6
ByBlock
 62
    0
370
   -2
100
AcDbLine
 10
4400
 20
311.5679812087736
 11
4400
 21
648.8067339299969
  0
SOLID
  5
103
100
AcDbEntity
  8
quote
  6
ByBlock
 62
    0
370
   -2
100
AcDbTrace
 10
4400
 20
311.5679812087736
 30
0
 11
4397.08600739559
 21
329.0679812087736
 31
0
 12
4402.91399260441
 22
329.0679812087736
 32
0
 13
4402.91399260441
 23
329.0679812087736
 33
0
  0
SOLID
  5
104
100
AcDbEntity
  8
quote
  6
ByBlock
 62
    0
370
   -2
100
AcDbTrace
 10
4400
 20
648.8067339299969
 30
0
 11
4402.91399260441
 21
631.3067339299969
 31
0
 12
4397.08600739559
 22
631.3067339299969
 32
0
 13
4397.08600739559
 23
631.3067339299969
 33
0
  0
MTEXT
  5
105
100
AcDbEntity
  8
quote
  6
CONTINUOUS
 62
    0
370
   -2
100
AcDbMText
 10
4378.125
 20
480.1873575693852
 30
0
 40
35
 41
141.9444444444488
 71
    5
 72
    1
  1
337,24
  7
standard
210
0
220
0
230
1
 50
90
 73
    2
 44
1
  0
ENDBLK
  5
87
330
85
100
AcDbEntity
  8
0
100
AcDbBlockEnd
  0
BLOCK
  5
89
330
88
100
AcDbEntity
  8
0
100
AcDbBlockBegin
  2
*D20
 70
    1
 10
0
 20
0
  3
*D20
  1

  0
LINE
  5
106
100
AcDbEntity
  8
quote
  6
ByBlock
 62
    0
370
   -2
100
AcDbLine
 10
5433.641983587209
 20
1254.375
 11
5433.641983587209
 21
1308.749999999999
  0
LINE
  5
107
100
AcDbEntity
  8
quote
  6
ByBlock
 62
    0
370
   -2
100
AcDbLine
 10
7000
 20
1254.375000000001
 11
7000
 21
1308.75
  0
LINE
  5
108
100
AcDbEntity
  8
quote
  6
ByBlock
 62
    0
370
   -2
100
AcDbLine
 10
5433.641983587209
 20
1299.999999999999
 11
7000
 21
1300
  0
SOLID
  5
109
100
AcDbEntity
  8
quote
  6
ByBlock
 62
    0
370
   -2
100
AcDbTrace
 10
5433.641983587209
 20
1299.999999999999
 30
0
 11
5451.141983587209
 21
1302.913992604409
 31
0
 12
5451.141983587209
 22
1297.086007395589
 32
0
 13
5451.141983587209
 23
1297.086007395589
 33
0
  0
SOLID
  5
10A
100
AcDbEntity
  8
quote
  6
ByBlock
 62
    0
370
   -2
100
AcDbTrace
 10
7000
 20
1300
 30
0
 11
6982.5
 21
1297.08600739559
 31
0
 12
6982.5
 22
1302.91399260441
 32
0
 13
6982.5
 23
1302.91399260441
 33
0
  0
MTEXT
  5
10B
100
AcDbEntity
  8
quote
  6
CONTINUOUS
 62
    0
370
   -2
100
AcDbMText
 10
6216.820991793606
 20
1321.875
 30
0
 40
35
 41
157.5000000000108
 71
    5
 72
    1
  1
1566,36
  7
standard
210
0
220
0
230
1
 50
2.544443745170813e-14
 73
    2
 44
1
  0
ENDBLK
  5
8A
330
88
100
AcDbEntity
  8
0
100
AcDbBlockEnd
  0
BLOCK
  5
8C
330
8B
100
AcDbEntity
  8
0
100
AcDbBlockBegin
  2
*D23
 70
    1
 10
0
 20
0
  3
*D23
  1

  0
LINE
  5
10C
100
AcDbEntity
  8
quote
  6
ByBlock
 62
    0
370
   -2
100
AcDbLine
 10
6047.602276259208
 20
990.953854140424
 11
5980.861492037009
 21
829.8273477077735
  0
LINE
  5
10D
100
AcDbEntity
  8
quote
  6
ByBlock
 62
    0
370
   -2
100
AcDbLine
 10
6998.325759983402
 20
597.1512931152665
 11
6931.584975761203
 21
436.024786682616
  0
LINE
  5
10E
100
AcDbEntity
  8
quote
  6
ByBlock
 62
    0
370
   -2
100
AcDbLine
 10
5984.209972070204
 20
837.9112936172472
 11
6934.933455794398
 21
444.1087325920897
  0
SOLID
  5
10F
100
AcDbEntity
  8
quote
  6
ByBlock
 62
    0
370
   -2
100
AcDbTrace
 10
5984.209972070204
 20
837.9112936172472
 30
0
 11
6001.493000580893
 21
833.9065116759617
 31
0
 12
5999.262727197409
 22
828.5221554257546
 32
0
 13
5999.262727197409
 23
828.5221554257546
 33
0
  0
SOLID
  5
110
100
AcDbEntity
  8
quote
  6
ByBlock
 62
    0
370
   -2
100
AcDbTrace
 10
6934.933455794398
 20
444.1087325920897
 30
0
 11
6917.650427283708
 21
448.1135145333753
 31
0
 12
6919.880700667192
 22
453.4978707835824
 32
0
 13
6919.880700667192
 23
453.4978707835824
 33
0
  0
MTEXT
  5
111
100
AcDbEntity
  8
quote
  6
CONTINUOUS
 62
    0
370
   -2
100
AcDbMText
 10
6467.942914015287
 20
661.219877878353
 30
0
 40
35
 41
157.5000000000022
 71
    5
 72
    1
  1
1029,06
  7
standard
210
0
220
0
230
1
 50
337.4999999999999
 73
    2
 44
1
  0
ENDBLK
  5
8D
330
8B
100
AcDbEntity
  8
0
100
AcDbBlockEnd
  0
BLOCK
  5
8F
330
8E
100
AcDbEntity
  8
0
100
AcDbBlockBegin
  2
*D26
 70
    1
 10
0
 20
0
  3
*D26
  1

  0
LINE
  5
112
100
AcDbEntity
  8
quote
  6
ByBlock
 62
    0
370
   -2
100
AcDbLine
 10
5435.316223603807
 20
1254.041972954737
 11
5483.320022482693
 21
1369.933395253579
  0
LINE
  5
113
100
AcDbEntity
  8
quote
  6
ByBlock
 62
    0
370
   -2
100
AcDbLine
 10
5751.674240016598
 20
1123.002191991109
 11
5799.678038895484
 21
1238.893614289951
  0
LINE
  5
114
100
AcDbEntity
  8
quote
  6
ByBlock
 62
    0
370
   -2
100
AcDbLine
 10
5479.971542449499
 20
1361.849449344105
 11
5796.32955886229
 21
1230.809668380477
  0
SOLID
  5
115
100
AcDbEntity
  8
quote
  6
ByBlock
 62
    0
370
   -2
100
AcDbTrace
 10
5479.971542449499
 20
1361.849449344105
 30
0
 11
5497.254570960188
 21
1357.844667402819
 31
0
 12
5495.024297576704
 22
1352.460311152612
 32
0
 13
5495.024297576704
 23
1352.460311152612
 33
0
  0
SOLID
  5
116
100
AcDbEntity
  8
quote
  6
ByBlock
 62
    0
370
   -2
100
AcDbTrace
 10
5796.32955886229
 20
1230.809668380477
 30
0
 11
5779.0465303516
 21
1234.814450321762
 31
0
 12
5781.276803735084
 22
1240.198806571969
 32
0
 13
5781.276803735084
 23
1240.198806571969
 33
0
  0
MTEXT
  5
117
100
AcDbEntity
  8
quote
  6
CONTINUOUS
 62
    0
370
   -2
100
AcDbMText
 10
5646.521750738881
 20
1316.539423635975
 30
0
 40
35
 41
145.8333333333355
 71
    5
 72
    1
  1
342,42
  7
standard
210
0
220
0
230
1
 50
337.5000000000001
 73
    2
 44
1
  0
ENDBLK
  5
90
330
8E
100
AcDbEntity
  8
0
100
AcDbBlockEnd
  0
BLOCK
  5
92
330
91
100
AcDbEntity
  8
0
100
AcDbBlockBegin
  2
*D17
 70
    1
 10
0
 20
0
  3
*D17
  1

  0
LINE
  5
118
100
AcDbEntity
  8
quote
  6
ByBlock
 62
    0
370
   -2
100
AcDbLine
 10
6100
 20
-4.375
 11
6100
 21
-108.75
  0
LINE
  5
119
100
AcDbEntity
  8
quote
  6
ByBlock
 62
    0
370
   -2
100
AcDbLine
 10
7000
 20
-4.375
 11
7000
 21
-108.75
  0
LINE
  5
11A
100
AcDbEntity
  8
quote
  6
ByBlock
 62
    0
370
   -2
100
AcDbLine
 10
6100
 20
-100
 11
7000
 21
-100
  0
SOLID
  5
11B
100
AcDbEntity
  8
quote
  6
ByBlock
 62
    0
370
   -2
100
AcDbTrace
 10
6100
 20
-100
 30
0
 11
6117.5
 21
-97.08600739559012
 31
0
 12
6117.5
 22
-102.9139926044099
 32
0
 13
6117.5
 23
-102.9139926044099
 33
0
  0
SOLID
  5
11C
100
AcDbEntity
  8
quote
  6
ByBlock
 62
    0
370
   -2
100
AcDbTrace
 10
7000
 20
-100
 30
0
 11
6982.5
 21
-102.9139926044099
 31
0
 12
6982.5
 22
-97.08600739559012
 32
0
 13
6982.5
 23
-97.08600739559012
 33
0
  0
MTEXT
  5
11D
100
AcDbEntity
  8
quote
  6
CONTINUOUS
 62
    0
370
   -2
100
AcDbMText
 10
6550
 20
-78.125
 30
0
 40
35
 41
70.00000000000219
 71
    5
 72
    1
  1
900
  7
standard
210
0
220
0
230
1
 50
0
 73
    2
 44
1
  0
ENDBLK
  5
93
330
91
100
AcDbEntity
  8
0
100
AcDbBlockEnd
  0
BLOCK
  5
95
330
94
100
AcDbEntity
  8
0
100
AcDbBlockBegin
  2
*D3
 70
    1
 10
0
 20
0
  3
*D3
  1

  0
LINE
  5
11E
100
AcDbEntity
  8
quote
  6
ByBlock
 62
    0
370
   -2
100
AcDbLine
 10
-417.4688692081097
 20
234.092191059195
 11
-318.1561931697496
 21
148.8706381492599
  0
LINE
  5
11F
100
AcDbEntity
  8
quote
  6
ByBlock
 62
    0
370
   -2
100
AcDbLine
 10
-294.7647170653668
 20
377.0850994751274
 11
-195.4520410270067
 21
291.8635465651923
  0
LINE
  5
120
100
AcDbEntity
  8
quote
  6
ByBlock
 62
    0
370
   -2
100
AcDbLine
 10
-324.7965024696256
 20
154.5687775299683
 11
-202.0923503268828
 21
297.5616859459008
  0
SOLID
  5
121
100
AcDbEntity
  8
quote
  6
ByBlock
 62
    0
370
   -2
100
AcDbTrace
 10
-324.7965024696256
 20
154.5687775299683
 30
0
 11
-315.6116308157326
 21
169.7470345313525
 31
0
 12
-311.188816600685
 22
165.9517577280882
 32
0
 13
-311.188816600685
 23
165.9517577280882
 33
0
  0
SOLID
  5
122
100
AcDbEntity
  8
quote
  6
ByBlock
 62
    0
370
   -2
100
AcDbTrace
 10
-202.0923503268828
 20
297.5616859459008
 30
0
 11
-211.2772219807758
 21
282.3834289445166
 31
0
 12
-215.7000361958233
 22
286.1787057477808
 32
0
 13
-215.7000361958233
 23
286.1787057477808
 33
0
  0
MTEXT
  5
123
100
AcDbEntity
  8
quote
  6
CONTINUOUS
 62
    0
370
   -2
100
AcDbMText
 10
-280.0451996479442
 20
240.3105801897056
 30
0
 40
35
 41
134.1666666666667
 71
    5
 72
    1
  1
188,42
  7
standard
210
0
220
0
230
1
 50
49.3666594207308
 73
    2
 44
1
  0
ENDBLK
  5
96
330
94
100
AcDbEntity
  8
0
100
AcDbBlockEnd
  0
BLOCK
  5
98
330
97
100
AcDbEntity
  8
0
100
AcDbBlockBegin
  2
*D24
 70
    1
 10
0
 20
0
  3
*D24
  1

  0
LINE
  5
124
100
AcDbEntity
  8
quote
  6
ByBlock
 62
    0
370
   -2
100
AcDbLine
 10
5751.674240016598
 20
1123.002191991109
 11
5844.347953005574
 21
1346.736326764569
  0
LINE
  5
125
100
AcDbEntity
  8
quote
  6
ByBlock
 62
    0
370
   -2
100
AcDbLine
 10
7001.674240016598
 20
605.2352390247403
 11
7094.347953005574
 21
828.9693737982002
  0
LINE
  5
126
100
AcDbEntity
  8
quote
  6
ByBlock
 62
    0
370
   -2
100
AcDbLine
 10
5840.999472972379
 20
1338.652380855095
 11
7090.999472972379
 21
820.8854278887264
  0
SOLID
  5
127
100
AcDbEntity
  8
quote
  6
ByBlock
 62
    0
370
   -2
100
AcDbTrace
 10
5840.999472972379
 20
1338.652380855095
 30
0
 11
5858.282501483069
 21
1334.64759891381
 31
0
 12
5856.052228099585
 22
1329.263242663603
 32
0
 13
5856.052228099585
 23
1329.263242663603
 33
0
  0
SOLID
  5
128
100
AcDbEntity
  8
quote
  6
ByBlock
 62
    0
370
   -2
100
AcDbTrace
 10
7090.999472972379
 20
820.8854278887264
 30
0
 11
7073.71644446169
 21
824.8902098300119
 31
0
 12
7075.946717845174
 22
830.2745660802191
 32
0
 13
7075.946717845174
 23
830.2745660802191
 33
0
  0
MTEXT
  5
129
100
AcDbEntity
  8
quote
  6
CONTINUOUS
 62
    0
370
   -2
100
AcDbMText
 10
6474.370673055368
 20
1099.978769145595
 30
0
 40
35
 41
157.5000000000044
 71
    5
 72
    1
  1
1352,99
  7
standard
210
0
220
0
230
1
 50
337.4999999999999
 73
    2
 44
1
  0
ENDBLK
  5
99
330
97
100
AcDbEntity
  8
0
100
AcDbBlockEnd
  0
BLOCK
  5
9B
330
9A
100
AcDbEntity
  8
0
100
AcDbBlockBegin
  2
*D4
 70
    1
 10
0
 20
0
  3
*D4
  1

  0
LINE
  5
12A
100
AcDbEntity
  8
quote
  6
ByBlock
 62
    0
370
   -2
100
AcDbLine
 10
-129.6668926305611
 20
460.7232440721079
 11
-123.0592952001171
 21
374.1916109357775
  0
LINE
  5
12B
100
AcDbEntity
  8
quote
  6
ByBlock
 62
    0
370
   -2
100
AcDbLine
 10
58.2093006318115
 20
475.0695612147214
 11
64.81689806225556
 21
388.537928078391
  0
LINE
  5
12C
100
AcDbEntity
  8
quote
  6
ByBlock
 62
    0
370
   -2
100
AcDbLine
 10
-123.7255099389904
 20
382.916211667141
 11
64.15068332338218
 21
397.2625288097545
  0
SOLID
  5
12D
100
AcDbEntity
  8
quote
  6
ByBlock
 62
    0
370
   -2
100
AcDbTrace
 10
-123.7255099389904
 20
382.916211667141
 30
0
 11
-106.4981764559236
 21
387.154175088616
 31
0
 12
-106.0544404966034
 22
381.3431072011595
 32
0
 13
-106.0544404966034
 23
381.3431072011595
 33
0
  0
SOLID
  5
12E
100
AcDbEntity
  8
quote
  6
ByBlock
 62
    0
370
   -2
100
AcDbTrace
 10
64.15068332338218
 20
397.2625288097545
 30
0
 11
46.92334984031537
 21
393.0245653882795
 31
0
 12
46.47961388099516
 22
398.835633275736
 32
0
 13
46.47961388099516
 23
398.835633275736
 33
0
  0
MTEXT
  5
12F
100
AcDbEntity
  8
quote
  6
CONTINUOUS
 62
    0
370
   -2
100
AcDbMText
 10
-31.45295015498751
 20
411.9008720668564
 30
0
 40
35
 41
134.1666666666667
 71
    5
 72
    1
  1
188,42
  7
standard
210
0
220
0
230
1
 50
4.366659420730799
 73
    2
 44
1
  0
ENDBLK
  5
9C
330
9A
100
AcDbEntity
  8
0
100
AcDbBlockEnd
  0
BLOCK
  5
9E
330
9D
100
AcDbEntity
  8
0
100
AcDbBlockBegin
  2
*D19
 70
    1
 10
0
 20
0
  3
*D19
  1

  0
LINE
  5
130
100
AcDbEntity
  8
quote
  6
ByBlock
 62
    0
370
   -2
100
AcDbLine
 10
7004.375
 20
601.1932660700035
 11
7108.75
 21
601.1932660700035
  0
LINE
  5
131
100
AcDbEntity
  8
quote
  6
ByBlock
 62
    0
370
   -2
100
AcDbLine
 10
7004.375
 20
1250
 11
7108.75
 21
1250
  0
LINE
  5
132
100
AcDbEntity
  8
quote
  6
ByBlock
 62
    0
370
   -2
100
AcDbLine
 10
7100
 20
601.1932660700035
 11
7100
 21
1250
  0
SOLID
  5
133
100
AcDbEntity
  8
quote
  6
ByBlock
 62
    0
370
   -2
100
AcDbTrace
 10
7100
 20
601.1932660700035
 30
0
 11
7097.08600739559
 21
618.6932660700035
 31
0
 12
7102.91399260441
 22
618.6932660700035
 32
0
 13
7102.91399260441
 23
618.6932660700035
 33
0
  0
SOLID
  5
134
100
AcDbEntity
  8
quote
  6
ByBlock
 62
    0
370
   -2
100
AcDbTrace
 10
7100
 20
1250
 30
0
 11
7102.91399260441
 21
1232.5
 31
0
 12
7097.08600739559
 22
1232.5
 32
0
 13
7097.08600739559
 23
1232.5
 33
0
  0
MTEXT
  5
135
100
AcDbEntity
  8
quote
  6
CONTINUOUS
 62
    0
370
   -2
100
AcDbMText
 10
7078.125
 20
925.5966330350018
 30
0
 40
35
 41
134.1666666666688
 71
    5
 72
    1
  1
648,81
  7
standard
210
0
220
0
230
1
 50
90
 73
    2
 44
1
  0
ENDBLK
  5
9F
330
9D
100
AcDbEntity
  8
0
100
AcDbBlockEnd
  0
BLOCK
  5
A1
330
A0
100
AcDbEntity
  8
0
100
AcDbBlockBegin
  2
*D6
 70
    1
 10
0
 20
0
  3
*D6
  1

  0
LINE
  5
136
100
AcDbEntity
  8
quote
  6
ByBlock
 62
    0
370
   -2
100
AcDbLine
 10
-1352.083232402462
 20
-306.434809973333
 11
-208.1551803625848
 21
-78.89337303008131
  0
LINE
  5
137
100
AcDbEntity
  8
quote
  6
ByBlock
 62
    0
370
   -2
100
AcDbLine
 10
-1366.429549545075
 20
234.3110032357116
 11
-208.1551803625846
 21
3.91590638644152
  0
ARC
  5
138
100
AcDbEntity
  8
quote
  6
ByBlock
 62
    0
370
   -2
100
AcDbCircle
 10
-5.684341886080801e-14
 20
-37.48873332182006
 40
203.4831814329492
100
AcDbArc
 50
168.75
 51
191.25
  0
SOLID
  5
139
100
AcDbEntity
  8
quote
  6
ByBlock
 62
    0
370
   -2
100
AcDbTrace
 10
-199.5733091590566
 20
-77.18633271244022
 30
0
 11
-205.12619882786
 21
-60.33679950749202
 31
0
 12
-199.3666041479146
 22
-59.44658564725002
 32
0
 13
-199.3666041479146
 23
-59.44658564725002
 33
0
  0
SOLID
  5
13A
100
AcDbEntity
  8
quote
  6
ByBlock
 62
    0
370
   -2
100
AcDbTrace
 10
-199.5733091590565
 20
2.208866068800404
 30
0
 11
-199.3666041479146
 21
-15.53088099638979
 31
0
 12
-205.12619882786
 22
-14.64066713614778
 32
0
 13
-205.12619882786
 23
-14.64066713614778
 33
0
  0
MTEXT
  5
13B
100
AcDbEntity
  8
quote
  6
CONTINUOUS
 62
    0
370
   -2
100
AcDbMText
 10
-207.8581814329492
 20
-37.48873332181984
 30
0
 40
35
 41
66.11111111111327
 71
    8
 72
    1
  1
23%%D
  7
standard
210
0
220
0
230
1
 50
449.9999999999999
 73
    2
 44
1
  0
ENDBLK
  5
A2
330
A0
100
AcDbEntity
  8
0
100
AcDbBlockEnd
  0
BLOCK
  5
A4
330
A3
100
AcDbEntity
  8
0
100
AcDbBlockBegin
  2
*D10
 70
    1
 10
0
 20
0
  3
*D10
  1

  0
LINE
  5
13C
100
AcDbEntity
  8
quote
  6
ByBlock
 62
    0
370
   -2
100
AcDbLine
 10
4495.625
 20
648.8067339299969
 11
4291.25
 21
648.8067339299971
  0
LINE
  5
13D
100
AcDbEntity
  8
quote
  6
ByBlock
 62
    0
370
   -2
100
AcDbLine
 10
4495.625
 20
4.421563560815015e-15
 11
4291.25
 21
2.109717470446021e-13
  0
LINE
  5
13E
100
AcDbEntity
  8
quote
  6
ByBlock
 62
    0
370
   -2
100
AcDbLine
 10
4300
 20
648.8067339299971
 11
4300
 21
2.021286199229721e-13
  0
SOLID
  5
13F
100
AcDbEntity
  8
quote
  6
ByBlock
 62
    0
370
   -2
100
AcDbTrace
 10
4300
 20
648.8067339299971
 30
0
 11
4302.91399260441
 21
631.3067339299971
 31
0
 12
4297.08600739559
 22
631.3067339299971
 32
0
 13
4297.08600739559
 23
631.3067339299971
 33
0
  0
SOLID
  5
140
100
AcDbEntity
  8
quote
  6
ByBlock
 62
    0
370
   -2
100
AcDbTrace
 10
4300
 20
2.021286199229721e-13
 30
0
 11
4297.08600739559
 21
17.5000000000002
 31
0
 12
4302.91399260441
 22
17.5000000000002
 32
0
 13
4302.91399260441
 23
17.5000000000002
 33
0
  0
MTEXT
  5
141
100
AcDbEntity
  8
quote
  6
CONTINUOUS
 62
    0
370
   -2
100
AcDbMText
 10
4278.125
 20
324.4033669649984
 30
0
 40
35
 41
134.1666666666688
 71
    5
 72
    1
  1
648,81
  7
standard
210
0
220
0
230
1
 50
90
 73
    2
 44
1
  0
ENDBLK
  5
A5
330
A3
100
AcDbEntity
  8
0
100
AcDbBlockEnd
  0
ENDSEC
  0
SECTION
  2
ENTITIES
  0
LINE
  5
142
100
AcDbEntity
  8
0
  6
ByLayer
 62
  256
370
   -1
100
AcDbLine
 10
-1000
 20
3000
 11
-740
 21
3000
  0
LINE
  5
143
100
AcDbEntity
  8
0
  6
ByLayer
 62
  256
370
   -1
100
AcDbLine
 10
-564.4187101854845
 20
3882.706752362908
 11
-870
 21
3943.490650146843
  0
LINE
  5
144
100
AcDbEntity
  8
0
  6
ByLayer
 62
  256
370
   -1
100
AcDbLine
 10
-870
 20
3943.490650146843
 11
-1175.581289814516
 21
3882.706752362908
  0
LINE
  5
145
100
AcDbEntity
  8
0
  6
ByLayer
 62
  256
370
   -1
100
AcDbLine
 10
-1000
 20
3000
 11
-1175.581289814515
 21
3882.706752362908
  0
LINE
  5
146
100
AcDbEntity
  8
0
  6
ByLayer
 62
  256
370
   -1
100
AcDbLine
 10
-740
 20
3000
 11
-564.4187101854845
 21
3882.706752362908
  0
CIRCLE
  5
147
100
AcDbEntity
  8
struttura
  6
ByLayer
 62
  256
370
   -1
100
AcDbCircle
 10
0
 20
0
 40
1500
  0
LINE
  5
148
100
AcDbEntity
  8
struttura
  6
ByLayer
 62
  256
370
   -1
100
AcDbLine
 10
-1467.276114164523
 20
-312.2511886322568
 11
-1398.621144536297
 21
-298.5948660911278
  0
LINE
  5
149
100
AcDbEntity
  8
struttura
  6
ByLayer
 62
  256
370
   -1
100
AcDbLine
 10
-1398.621144536297
 20
-298.5948660911278
 11
-1406.424757416942
 21
-259.3634548749986
  0
LINE
  5
14A
100
AcDbEntity
  8
struttura
  6
ByLayer
 62
  256
370
   -1
100
AcDbLine
 10
-1406.424757416942
 20
-259.3634548749986
 11
-1475.079727045168
 21
-273.0197774161276
  0
LINE
  5
14B
100
AcDbEntity
  8
struttura
  6
ByLayer
 62
  256
370
   -1
100
AcDbLine
 10
-1475.079727045168
 20
-273.0197774161277
 11
-1467.276114164523
 21
-312.251188632257
  0
LINE
  5
14C
100
AcDbEntity
  8
struttura
  6
ByLayer
 62
  256
370
   -1
100
AcDbLine
 10
-1236.093013793426
 20
-849.984741775454
 11
-1177.890140932248
 21
-811.0948254640821
  0
LINE
  5
14D
100
AcDbEntity
  8
struttura
  6
ByLayer
 62
  256
370
   -1
100
AcDbLine
 10
-1177.890140932248
 20
-811.0948254640821
 11
-1200.112950253032
 21
-777.8360409719801
  0
LINE
  5
14E
100
AcDbEntity
  8
struttura
  6
ByLayer
 62
  256
370
   -1
100
AcDbLine
 10
-1200.112950253032
 20
-777.8360409719801
 11
-1258.31582311421
 21
-816.7259572833523
  0
LINE
  5
14F
100
AcDbEntity
  8
struttura
  6
ByLayer
 62
  256
370
   -1
100
AcDbLine
 10
-1258.31582311421
 20
-816.7259572833525
 11
-1236.093013793426
 21
-849.984741775454
  0
LINE
  5
150
100
AcDbEntity
  8
struttura
  6
ByLayer
 62
  256
370
   -1
100
AcDbLine
 10
-816.7259572833527
 20
-1258.31582311421
 11
-777.8360409719805
 21
-1200.112950253031
  0
LINE
  5
151
100
AcDbEntity
  8
struttura
  6
ByLayer
 62
  256
370
   -1
100
AcDbLine
 10
-777.8360409719805
 20
-1200.112950253031
 11
-811.0948254640824
 21
-1177.890140932248
  0
LINE
  5
152
100
AcDbEntity
  8
struttura
  6
ByLayer
 62
  256
370
   -1
100
AcDbLine
 10
-811.0948254640824
 20
-1177.890140932248
 11
-849.9847417754545
 21
-1236.093013793426
  0
LINE
  5
153
100
AcDbEntity
  8
struttura
  6
ByLayer
 62
  256
370
   -1
100
AcDbLine
 10
-849.9847417754543
 20
-1236.093013793426
 11
-816.7259572833527
 21
-1258.31582311421
  0
LINE
  5
154
100
AcDbEntity
  8
struttura
  6
ByLayer
 62
  256
370
   -1
100
AcDbLine
 10
-273.0197774161282
 20
-1475.079727045168
 11
-259.3634548749992
 21
-1406.424757416942
  0
LINE
  5
155
100
AcDbEntity
  8
struttura
  6
ByLayer
 62
  256
370
   -1
100
AcDbLine
 10
-259.3634548749992
 20
-1406.424757416942
 11
-298.5948660911283
 21
-1398.621144536297
  0
LINE
  5
156
100
AcDbEntity
  8
struttura
  6
ByLayer
 62
  256
370
   -1
100
AcDbLine
 10
-298.5948660911283
 20
-1398.621144536297
 11
-312.2511886322573
 21
-1467.276114164523
  0
LINE
  5
157
100
AcDbEntity
  8
struttura
  6
ByLayer
 62
  256
370
   -1
100
AcDbLine
 10
-312.2511886322571
 20
-1467.276114164523
 11
-273.019777416128
 21
-1475.079727045168
  0
LINE
  5
158
100
AcDbEntity
  8
struttura
  6
ByLayer
 62
  256
370
   -1
100
AcDbLine
 10
312.2511886322567
 20
-1467.276114164523
 11
298.5948660911277
 21
-1398.621144536297
  0
LINE
  5
159
100
AcDbEntity
  8
struttura
  6
ByLayer
 62
  256
370
   -1
100
AcDbLine
 10
298.5948660911277
 20
-1398.621144536297
 11
259.3634548749985
 21
-1406.424757416942
  0
LINE
  5
15A
100
AcDbEntity
  8
struttura
  6
ByLayer
 62
  256
370
   -1
100
AcDbLine
 10
259.3634548749985
 20
-1406.424757416942
 11
273.0197774161275
 21
-1475.079727045168
  0
LINE
  5
15B
100
AcDbEntity
  8
struttura
  6
ByLayer
 62
  256
370
   -1
100
AcDbLine
 10
273.0197774161277
 20
-1475.079727045168
 11
312.2511886322569
 21
-1467.276114164523
  0
LINE
  5
15C
100
AcDbEntity
  8
struttura
  6
ByLayer
 62
  256
370
   -1
100
AcDbLine
 10
849.984741775454
 20
-1236.093013793426
 11
811.0948254640819
 21
-1177.890140932248
  0
LINE
  5
15D
100
AcDbEntity
  8
struttura
  6
ByLayer
 62
  256
370
   -1
100
AcDbLine
 10
811.0948254640819
 20
-1177.890140932248
 11
777.8360409719801
 21
-1200.112950253032
  0
LINE
  5
15E
100
AcDbEntity
  8
struttura
  6
ByLayer
 62
  256
370
   -1
100
AcDbLine
 10
777.8360409719801
 20
-1200.112950253032
 11
816.7259572833522
 21
-1258.31582311421
  0
LINE
  5
15F
100
AcDbEntity
  8
struttura
  6
ByLayer
 62
  256
370
   -1
100
AcDbLine
 10
816.7259572833524
 20
-1258.31582311421
 11
849.984741775454
 21
-1236.093013793426
  0
LINE
  5
160
100
AcDbEntity
  8
struttura
  6
ByLayer
 62
  256
370
   -1
100
AcDbLine
 10
1258.31582311421
 20
-816.7259572833527
 11
1200.112950253031
 21
-777.8360409719805
  0
LINE
  5
161
100
AcDbEntity
  8
struttura
  6
ByLayer
 62
  256
370
   -1
100
AcDbLine
 10
1200.112950253031
 20
-777.8360409719805
 11
1177.890140932248
 21
-811.0948254640824
  0
LINE
  5
162
100
AcDbEntity
  8
struttura
  6
ByLayer
 62
  256
370
   -1
100
AcDbLine
 10
1177.890140932248
 20
-811.0948254640824
 11
1236.093013793426
 21
-849.9847417754545
  0
LINE
  5
163
100
AcDbEntity
  8
struttura
  6
ByLayer
 62
  256
370
   -1
100
AcDbLine
 10
1236.093013793426
 20
-849.9847417754543
 11
1258.31582311421
 21
-816.7259572833527
  0
LINE
  5
164
100
AcDbEntity
  8
struttura
  6
ByLayer
 62
  256
370
   -1
100
AcDbLine
 10
1475.079727045168
 20
-273.0197774161282
 11
1406.424757416942
 21
-259.3634548749992
  0
LINE
  5
165
100
AcDbEntity
  8
struttura
  6
ByLayer
 62
  256
370
   -1
100
AcDbLine
 10
1406.424757416942
 20
-259.3634548749992
 11
1398.621144536297
 21
-298.5948660911283
  0
LINE
  5
166
100
AcDbEntity
  8
struttura
  6
ByLayer
 62
  256
370
   -1
100
AcDbLine
 10
1398.621144536297
 20
-298.5948660911283
 11
1467.276114164523
 21
-312.2511886322573
  0
LINE
  5
167
100
AcDbEntity
  8
struttura
  6
ByLayer
 62
  256
370
   -1
100
AcDbLine
 10
1467.276114164523
 20
-312.2511886322571
 11
1475.079727045168
 21
-273.019777416128
  0
LINE
  5
168
100
AcDbEntity
  8
struttura
  6
ByLayer
 62
  256
370
   -1
100
AcDbLine
 10
1467.276114164523
 20
312.2511886322566
 11
1398.621144536297
 21
298.5948660911276
  0
LINE
  5
169
100
AcDbEntity
  8
struttura
  6
ByLayer
 62
  256
370
   -1
100
AcDbLine
 10
1398.621144536297
 20
298.5948660911276
 11
1406.424757416942
 21
259.3634548749984
  0
LINE
  5
16A
100
AcDbEntity
  8
struttura
  6
ByLayer
 62
  256
370
   -1
100
AcDbLine
 10
1406.424757416942
 20
259.3634548749984
 11
1475.079727045168
 21
273.0197774161274
  0
LINE
  5
16B
100
AcDbEntity
  8
struttura
  6
ByLayer
 62
  256
370
   -1
100
AcDbLine
 10
1475.079727045168
 20
273.0197774161276
 11
1467.276114164523
 21
312.2511886322568
  0
LINE
  5
16C
100
AcDbEntity
  8
struttura
  6
ByLayer
 62
  256
370
   -1
100
AcDbLine
 10
1236.093013793426
 20
849.984741775454
 11
1177.890140932248
 21
811.0948254640819
  0
LINE
  5
16D
100
AcDbEntity
  8
struttura
  6
ByLayer
 62
  256
370
   -1
100
AcDbLine
 10
1177.890140932248
 20
811.0948254640819
 11
1200.112950253032
 21
777.8360409719799
  0
LINE
  5
16E
100
AcDbEntity
  8
struttura
  6
ByLayer
 62
  256
370
   -1
100
AcDbLine
 10
1200.112950253032
 20
777.8360409719799
 11
1258.31582311421
 21
816.7259572833523
  0
LINE
  5
16F
100
AcDbEntity
  8
struttura
  6
ByLayer
 62
  256
370
   -1
100
AcDbLine
 10
1258.31582311421
 20
816.7259572833525
 11
1236.093013793426
 21
849.984741775454
  0
LINE
  5
170
100
AcDbEntity
  8
struttura
  6
ByLayer
 62
  256
370
   -1
100
AcDbLine
 10
816.7259572833527
 20
1258.31582311421
 11
777.8360409719807
 21
1200.112950253031
  0
LINE
  5
171
100
AcDbEntity
  8
struttura
  6
ByLayer
 62
  256
370
   -1
100
AcDbLine
 10
777.8360409719807
 20
1200.112950253031
 11
811.0948254640824
 21
1177.890140932248
  0
LINE
  5
172
100
AcDbEntity
  8
struttura
  6
ByLayer
 62
  256
370
   -1
100
AcDbLine
 10
811.0948254640824
 20
1177.890140932248
 11
849.9847417754545
 21
1236.093013793426
  0
LINE
  5
173
100
AcDbEntity
  8
struttura
  6
ByLayer
 62
  256
370
   -1
100
AcDbLine
 10
849.9847417754543
 20
1236.093013793426
 11
816.7259572833527
 21
1258.31582311421
  0
LINE
  5
174
100
AcDbEntity
  8
struttura
  6
ByLayer
 62
  256
370
   -1
100
AcDbLine
 10
273.0197774161288
 20
1475.079727045168
 11
259.3634548749998
 21
1406.424757416942
  0
LINE
  5
175
100
AcDbEntity
  8
struttura
  6
ByLayer
 62
  256
370
   -1
100
AcDbLine
 10
259.3634548749998
 20
1406.424757416942
 11
298.5948660911291
 21
1398.621144536297
  0
LINE
  5
176
100
AcDbEntity
  8
struttura
  6
ByLayer
 62
  256
370
   -1
100
AcDbLine
 10
298.5948660911291
 20
1398.621144536297
 11
312.251188632258
 21
1467.276114164523
  0
LINE
  5
177
100
AcDbEntity
  8
struttura
  6
ByLayer
 62
  256
370
   -1
100
AcDbLine
 10
312.2511886322578
 20
1467.276114164523
 11
273.0197774161286
 21
1475.079727045168
  0
LINE
  5
178
100
AcDbEntity
  8
struttura
  6
ByLayer
 62
  256
370
   -1
100
AcDbLine
 10
-312.2511886322565
 20
1467.276114164523
 11
-298.5948660911275
 21
1398.621144536297
  0
LINE
  5
179
100
AcDbEntity
  8
struttura
  6
ByLayer
 62
  256
370
   -1
100
AcDbLine
 10
-298.5948660911275
 20
1398.621144536297
 11
-259.3634548749983
 21
1406.424757416942
  0
LINE
  5
17A
100
AcDbEntity
  8
struttura
  6
ByLayer
 62
  256
370
   -1
100
AcDbLine
 10
-259.3634548749983
 20
1406.424757416942
 11
-273.0197774161273
 21
1475.079727045168
  0
LINE
  5
17B
100
AcDbEntity
  8
struttura
  6
ByLayer
 62
  256
370
   -1
100
AcDbLine
 10
-273.0197774161275
 20
1475.079727045168
 11
-312.2511886322567
 21
1467.276114164523
  0
LINE
  5
17C
100
AcDbEntity
  8
struttura
  6
ByLayer
 62
  256
370
   -1
100
AcDbLine
 10
-849.9847417754543
 20
1236.093013793426
 11
-811.0948254640823
 21
1177.890140932248
  0
LINE
  5
17D
100
AcDbEntity
  8
struttura
  6
ByLayer
 62
  256
370
   -1
100
AcDbLine
 10
-811.0948254640823
 20
1177.890140932248
 11
-777.8360409719804
 21
1200.112950253032
  0
LINE
  5
17E
100
AcDbEntity
  8
struttura
  6
ByLayer
 62
  256
370
   -1
100
AcDbLine
 10
-777.8360409719804
 20
1200.112950253032
 11
-816.7259572833525
 21
1258.31582311421
  0
LINE
  5
17F
100
AcDbEntity
  8
struttura
  6
ByLayer
 62
  256
370
   -1
100
AcDbLine
 10
-816.7259572833527
 20
1258.31582311421
 11
-849.9847417754545
 21
1236.093013793426
  0
LINE
  5
180
100
AcDbEntity
  8
struttura
  6
ByLayer
 62
  256
370
   -1
100
AcDbLine
 10
-1258.315823114209
 20
816.7259572833528
 11
-1200.112950253031
 21
777.8360409719807
  0
LINE
  5
181
100
AcDbEntity
  8
struttura
  6
ByLayer
 62
  256
370
   -1
100
AcDbLine
 10
-1200.112950253031
 20
777.8360409719807
 11
-1177.890140932247
 21
811.0948254640824
  0
LINE
  5
182
100
AcDbEntity
  8
struttura
  6
ByLayer
 62
  256
370
   -1
100
AcDbLine
 10
-1177.890140932247
 20
811.0948254640824
 11
-1236.093013793425
 21
849.9847417754546
  0
LINE
  5
183
100
AcDbEntity
  8
struttura
  6
ByLayer
 62
  256
370
   -1
100
AcDbLine
 10
-1236.093013793425
 20
849.9847417754544
 11
-1258.31582311421
 21
816.7259572833527
  0
LINE
  5
184
100
AcDbEntity
  8
struttura
  6
ByLayer
 62
  256
370
   -1
100
AcDbLine
 10
-1406.424757416942
 20
259.3634548749999
 11
-1398.621144536297
 21
298.5948660911292
  0
LINE
  5
185
100
AcDbEntity
  8
struttura
  6
ByLayer
 62
  256
370
   -1
100
AcDbLine
 10
-1398.621144536297
 20
298.5948660911292
 11
-1467.276114164523
 21
312.2511886322582
  0
LINE
  5
186
100
AcDbEntity
  8
struttura
  6
ByLayer
 62
  256
370
   -1
100
AcDbLine
 10
-1467.276114164523
 20
312.2511886322579
 11
-1475.079727045168
 21
273.0197774161288
  0
LINE
  5
187
100
AcDbEntity
  8
struttura
  6
ByLayer
 62
  256
370
   -1
100
AcDbLine
 10
-1475.079727045168
 20
273.0197774161289
 11
-641.2200915064544
 21
107.1547832487847
  0
LINE
  5
188
100
AcDbEntity
  8
struttura
  6
ByLayer
 62
  256
370
   -1
100
AcDbLine
 10
-1475.079727045168
 20
-273.0197774161276
 11
-641.2200915064548
 21
-107.1547832487833
  0
LINE
  5
189
100
AcDbEntity
  8
struttura
  6
ByLayer
 62
  256
370
   -1
100
AcDbLine
 10
-641.2200915064548
 20
-107.1547832487833
 11
-641.2200915064544
 21
107.1547832487847
  0
LINE
  5
18A
100
AcDbEntity
  8
struttura
  6
ByLayer
 62
  256
370
   -1
100
AcDbLine
 10
-1482.883339925813
 20
233.7883661999997
 11
-651.2200915064545
 21
68.36026059424853
  0
LINE
  5
18B
100
AcDbEntity
  8
struttura
  6
ByLayer
 62
  256
370
   -1
100
AcDbLine
 10
-1482.883339925813
 20
-233.7883661999983
 11
-651.2200915064545
 21
-68.36026059424708
  0
LINE
  5
18C
100
AcDbEntity
  8
struttura
  6
ByLayer
 62
  256
370
   -1
100
AcDbLine
 10
-651.2200915064544
 20
-109.1439069225798
 11
-651.2200915064545
 21
109.1439069225813
  0
CIRCLE
  5
18D
100
AcDbEntity
  8
struttura
  6
ByLayer
 62
  256
370
   -1
100
AcDbCircle
 10
0
 20
0
 40
1382
  0
LINE
  5
18E
100
AcDbEntity
  8
struttura
  6
ByLayer
 62
  256
370
   -1
100
AcDbLine
 10
-1467.276114164523
 20
-312.2511886322557
 11
-633.4164786258098
 21
-146.3861944649115
  0
LINE
  5
18F
100
AcDbEntity
  8
struttura
  6
ByLayer
 62
  256
370
   -1
100
AcDbLine
 10
-1258.31582311421
 20
-816.7259572833523
 11
-551.4037581298463
 21
-344.3824165733812
  0
LINE
  5
190
100
AcDbEntity
  8
struttura
  6
ByLayer
 62
  256
370
   -1
100
AcDbLine
 10
-551.4037581298463
 20
-344.3824165733812
 11
-633.4164786258098
 21
-146.3861944649115
  0
LINE
  5
191
100
AcDbEntity
  8
struttura
  6
ByLayer
 62
  256
370
   -1
100
AcDbLine
 10
-1459.472501283878
 20
-351.482599848385
 11
-627.8092528645196
 21
-186.0544942426338
  0
LINE
  5
192
100
AcDbEntity
  8
struttura
  6
ByLayer
 62
  256
370
   -1
100
AcDbLine
 10
-1280.538632434994
 20
-783.4671727912505
 11
-575.4885745413621
 21
-312.3677854429606
  0
LINE
  5
193
100
AcDbEntity
  8
struttura
  6
ByLayer
 62
  256
370
   -1
100
AcDbLine
 10
-559.8813487800718
 20
-350.0469615468863
 11
-643.4164786258098
 21
-148.375318138708
  0
LINE
  5
194
100
AcDbEntity
  8
struttura
  6
ByLayer
 62
  256
370
   -1
100
AcDbLine
 10
-1236.093013793427
 20
-849.9847417754531
 11
-529.1809488090629
 21
-377.6412010654822
  0
LINE
  5
195
100
AcDbEntity
  8
struttura
  6
ByLayer
 62
  256
370
   -1
100
AcDbLine
 10
-849.9847417754545
 20
-1236.093013793426
 11
-377.6412010654834
 21
-529.180948809062
  0
LINE
  5
196
100
AcDbEntity
  8
struttura
  6
ByLayer
 62
  256
370
   -1
100
AcDbLine
 10
-377.6412010654834
 20
-529.180948809062
 11
-529.1809488090629
 21
-377.6412010654822
  0
LINE
  5
197
100
AcDbEntity
  8
struttura
  6
ByLayer
 62
  256
370
   -1
100
AcDbLine
 10
-1213.870204472643
 20
-883.2435262675549
 11
-508.8201465790108
 21
-412.1441389192653
  0
LINE
  5
198
100
AcDbEntity
  8
struttura
  6
ByLayer
 62
  256
370
   -1
100
AcDbLine
 10
-883.2435262675564
 20
-1213.870204472641
 11
-412.1441389192664
 21
-508.8201465790096
  0
LINE
  5
199
100
AcDbEntity
  8
struttura
  6
ByLayer
 62
  256
370
   -1
100
AcDbLine
 10
-383.3057460389884
 20
-537.6585394592875
 11
-537.6585394592886
 21
-383.3057460389873
  0
LINE
  5
19A
100
AcDbEntity
  8
struttura
  6
ByLayer
 62
  256
370
   -1
100
AcDbLine
 10
-816.7259572833536
 20
-1258.315823114209
 11
-344.3824165733825
 21
-551.4037581298455
  0
LINE
  5
19B
100
AcDbEntity
  8
struttura
  6
ByLayer
 62
  256
370
   -1
100
AcDbLine
 10
-312.2511886322573
 20
-1467.276114164523
 11
-146.3861944649129
 21
-633.4164786258095
  0
LINE
  5
19C
100
AcDbEntity
  8
struttura
  6
ByLayer
 62
  256
370
   -1
100
AcDbLine
 10
-146.3861944649129
 20
-633.4164786258095
 11
-344.3824165733825
 21
-551.4037581298455
  0
LINE
  5
19D
100
AcDbEntity
  8
struttura
  6
ByLayer
 62
  256
370
   -1
100
AcDbLine
 10
-783.4671727912519
 20
-1280.538632434993
 11
-312.367785442962
 21
-575.4885745413616
  0
LINE
  5
19E
100
AcDbEntity
  8
struttura
  6
ByLayer
 62
  256
370
   -1
100
AcDbLine
 10
-351.4825998483866
 20
-1459.472501283878
 11
-186.0544942426351
 21
-627.8092528645191
  0
LINE
  5
19F
100
AcDbEntity
  8
struttura
  6
ByLayer
 62
  256
370
   -1
100
AcDbLine
 10
-148.3753181387094
 20
-643.4164786258092
 11
-350.0469615468876
 21
-559.8813487800712
  0
LINE
  5
1A0
100
AcDbEntity
  8
struttura
  6
ByLayer
 62
  256
370
   -1
100
AcDbLine
 10
-273.019777416129
 20
-1475.079727045168
 11
-107.1547832487847
 21
-641.2200915064544
  0
LINE
  5
1A1
100
AcDbEntity
  8
struttura
  6
ByLayer
 62
  256
370
   -1
100
AcDbLine
 10
273.0197774161275
 20
-1475.079727045168
 11
107.1547832487832
 21
-641.2200915064548
  0
LINE
  5
1A2
100
AcDbEntity
  8
struttura
  6
ByLayer
 62
  256
370
   -1
100
AcDbLine
 10
107.1547832487832
 20
-641.2200915064548
 11
-107.1547832487847
 21
-641.2200915064544
  0
LINE
  5
1A3
100
AcDbEntity
  8
struttura
  6
ByLayer
 62
  256
370
   -1
100
AcDbLine
 10
-233.7883661999998
 20
-1482.883339925813
 11
-68.36026059424856
 21
-651.2200915064545
  0
LINE
  5
1A4
100
AcDbEntity
  8
struttura
  6
ByLayer
 62
  256
370
   -1
100
AcDbLine
 10
233.7883661999983
 20
-1482.883339925814
 11
68.36026059424705
 21
-651.2200915064545
  0
LINE
  5
1A5
100
AcDbEntity
  8
struttura
  6
ByLayer
 62
  256
370
   -1
100
AcDbLine
 10
109.1439069225798
 20
-651.2200915064544
 11
-109.1439069225814
 21
-651.2200915064545
  0
LINE
  5
1A6
100
AcDbEntity
  8
struttura
  6
ByLayer
 62
  256
370
   -1
100
AcDbLine
 10
312.2511886322556
 20
-1467.276114164523
 11
146.3861944649114
 21
-633.4164786258098
  0
LINE
  5
1A7
100
AcDbEntity
  8
struttura
  6
ByLayer
 62
  256
370
   -1
100
AcDbLine
 10
816.7259572833522
 20
-1258.31582311421
 11
344.3824165733812
 21
-551.4037581298463
  0
LINE
  5
1A8
100
AcDbEntity
  8
struttura
  6
ByLayer
 62
  256
370
   -1
100
AcDbLine
 10
344.3824165733812
 20
-551.4037581298463
 11
146.3861944649114
 21
-633.4164786258098
  0
LINE
  5
1A9
100
AcDbEntity
  8
struttura
  6
ByLayer
 62
  256
370
   -1
100
AcDbLine
 10
351.482599848385
 20
-1459.472501283878
 11
186.0544942426338
 21
-627.8092528645197
  0
LINE
  5
1AA
100
AcDbEntity
  8
struttura
  6
ByLayer
 62
  256
370
   -1
100
AcDbLine
 10
783.4671727912503
 20
-1280.538632434994
 11
312.3677854429606
 21
-575.4885745413621
  0
LINE
  5
1AB
100
AcDbEntity
  8
struttura
  6
ByLayer
 62
  256
370
   -1
100
AcDbLine
 10
350.0469615468862
 20
-559.8813487800718
 11
148.375318138708
 21
-643.4164786258098
  0
LINE
  5
1AC
100
AcDbEntity
  8
struttura
  6
ByLayer
 62
  256
370
   -1
100
AcDbLine
 10
849.9847417754531
 20
-1236.093013793427
 11
377.6412010654822
 21
-529.1809488090629
  0
LINE
  5
1AD
100
AcDbEntity
  8
struttura
  6
ByLayer
 62
  256
370
   -1
100
AcDbLine
 10
1236.093013793426
 20
-849.9847417754545
 11
529.180948809062
 21
-377.6412010654834
  0
LINE
  5
1AE
100
AcDbEntity
  8
struttura
  6
ByLayer
 62
  256
370
   -1
100
AcDbLine
 10
529.180948809062
 20
-377.6412010654834
 11
377.6412010654822
 21
-529.1809488090629
  0
LINE
  5
1AF
100
AcDbEntity
  8
struttura
  6
ByLayer
 62
  256
370
   -1
100
AcDbLine
 10
883.2435262675549
 20
-1213.870204472643
 11
412.1441389192653
 21
-508.8201465790108
  0
LINE
  5
1B0
100
AcDbEntity
  8
struttura
  6
ByLayer
 62
  256
370
   -1
100
AcDbLine
 10
1213.870204472641
 20
-883.2435262675564
 11
508.8201465790096
 21
-412.1441389192664
  0
LINE
  5
1B1
100
AcDbEntity
  8
struttura
  6
ByLayer
 62
  256
370
   -1
100
AcDbLine
 10
537.6585394592875
 20
-383.3057460389884
 11
383.3057460389873
 21
-537.6585394592886
  0
LINE
  5
1B2
100
AcDbEntity
  8
struttura
  6
ByLayer
 62
  256
370
   -1
100
AcDbLine
 10
1258.315823114209
 20
-816.7259572833536
 11
551.4037581298455
 21
-344.3824165733825
  0
LINE
  5
1B3
100
AcDbEntity
  8
struttura
  6
ByLayer
 62
  256
370
   -1
100
AcDbLine
 10
1467.276114164523
 20
-312.2511886322573
 11
633.4164786258095
 21
-146.3861944649129
  0
LINE
  5
1B4
100
AcDbEntity
  8
struttura
  6
ByLayer
 62
  256
370
   -1
100
AcDbLine
 10
633.4164786258095
 20
-146.3861944649129
 11
551.4037581298455
 21
-344.3824165733825
  0
LINE
  5
1B5
100
AcDbEntity
  8
struttura
  6
ByLayer
 62
  256
370
   -1
100
AcDbLine
 10
1280.538632434993
 20
-783.4671727912519
 11
575.4885745413616
 21
-312.367785442962
  0
LINE
  5
1B6
100
AcDbEntity
  8
struttura
  6
ByLayer
 62
  256
370
   -1
100
AcDbLine
 10
1459.472501283878
 20
-351.4825998483866
 11
627.8092528645191
 21
-186.0544942426352
  0
LINE
  5
1B7
100
AcDbEntity
  8
struttura
  6
ByLayer
 62
  256
370
   -1
100
AcDbLine
 10
643.4164786258092
 20
-148.3753181387094
 11
559.8813487800712
 21
-350.0469615468878
  0
LINE
  5
1B8
100
AcDbEntity
  8
struttura
  6
ByLayer
 62
  256
370
   -1
100
AcDbLine
 10
1475.079727045168
 20
-273.0197774161292
 11
641.2200915064544
 21
-107.1547832487848
  0
LINE
  5
1B9
100
AcDbEntity
  8
struttura
  6
ByLayer
 62
  256
370
   -1
100
AcDbLine
 10
1475.079727045168
 20
273.0197774161274
 11
641.2200915064548
 21
107.1547832487832
  0
LINE
  5
1BA
100
AcDbEntity
  8
struttura
  6
ByLayer
 62
  256
370
   -1
100
AcDbLine
 10
641.2200915064548
 20
107.1547832487832
 11
641.2200915064544
 21
-107.1547832487848
  0
LINE
  5
1BB
100
AcDbEntity
  8
struttura
  6
ByLayer
 62
  256
370
   -1
100
AcDbLine
 10
1482.883339925813
 20
-233.7883661999999
 11
651.2200915064547
 21
-68.36026059424862
  0
LINE
  5
1BC
100
AcDbEntity
  8
struttura
  6
ByLayer
 62
  256
370
   -1
100
AcDbLine
 10
1482.883339925814
 20
233.7883661999982
 11
651.2200915064545
 21
68.36026059424702
  0
LINE
  5
1BD
100
AcDbEntity
  8
struttura
  6
ByLayer
 62
  256
370
   -1
100
AcDbLine
 10
651.2200915064544
 20
109.1439069225797
 11
651.2200915064545
 21
-109.1439069225814
  0
LINE
  5
1BE
100
AcDbEntity
  8
struttura
  6
ByLayer
 62
  256
370
   -1
100
AcDbLine
 10
1467.276114164523
 20
312.2511886322556
 11
633.4164786258099
 21
146.3861944649114
  0
LINE
  5
1BF
100
AcDbEntity
  8
struttura
  6
ByLayer
 62
  256
370
   -1
100
AcDbLine
 10
1258.31582311421
 20
816.7259572833523
 11
551.4037581298464
 21
344.3824165733812
  0
LINE
  5
1C0
100
AcDbEntity
  8
struttura
  6
ByLayer
 62
  256
370
   -1
100
AcDbLine
 10
551.4037581298464
 20
344.3824165733812
 11
633.4164786258099
 21
146.3861944649114
  0
LINE
  5
1C1
100
AcDbEntity
  8
struttura
  6
ByLayer
 62
  256
370
   -1
100
AcDbLine
 10
1459.472501283878
 20
351.4825998483848
 11
627.8092528645197
 21
186.0544942426337
  0
LINE
  5
1C2
100
AcDbEntity
  8
struttura
  6
ByLayer
 62
  256
370
   -1
100
AcDbLine
 10
1280.538632434994
 20
783.4671727912503
 11
575.4885745413621
 21
312.3677854429606
  0
LINE
  5
1C3
100
AcDbEntity
  8
struttura
  6
ByLayer
 62
  256
370
   -1
100
AcDbLine
 10
559.8813487800719
 20
350.0469615468862
 11
643.4164786258099
 21
148.375318138708
  0
LINE
  5
1C4
100
AcDbEntity
  8
struttura
  6
ByLayer
 62
  256
370
   -1
100
AcDbLine
 10
1236.093013793427
 20
849.984741775453
 11
529.1809488090629
 21
377.6412010654821
  0
LINE
  5
1C5
100
AcDbEntity
  8
struttura
  6
ByLayer
 62
  256
370
   -1
100
AcDbLine
 10
849.9847417754545
 20
1236.093013793426
 11
377.6412010654835
 21
529.180948809062
  0
LINE
  5
1C6
100
AcDbEntity
  8
struttura
  6
ByLayer
 62
  256
370
   -1
100
AcDbLine
 10
377.6412010654835
 20
529.180948809062
 11
529.1809488090629
 21
377.6412010654821
  0
LINE
  5
1C7
100
AcDbEntity
  8
struttura
  6
ByLayer
 62
  256
370
   -1
100
AcDbLine
 10
1213.870204472643
 20
883.2435262675549
 11
508.8201465790108
 21
412.1441389192653
  0
LINE
  5
1C8
100
AcDbEntity
  8
struttura
  6
ByLayer
 62
  256
370
   -1
100
AcDbLine
 10
883.2435262675564
 20
1213.870204472641
 11
412.1441389192664
 21
508.8201465790096
  0
LINE
  5
1C9
100
AcDbEntity
  8
struttura
  6
ByLayer
 62
  256
370
   -1
100
AcDbLine
 10
383.3057460389885
 20
537.6585394592875
 11
537.6585394592886
 21
383.3057460389873
  0
LINE
  5
1CA
100
AcDbEntity
  8
struttura
  6
ByLayer
 62
  256
370
   -1
100
AcDbLine
 10
816.7259572833541
 20
1258.315823114209
 11
344.3824165733828
 21
551.4037581298453
  0
LINE
  5
1CB
100
AcDbEntity
  8
struttura
  6
ByLayer
 62
  256
370
   -1
100
AcDbLine
 10
312.251188632258
 20
1467.276114164523
 11
146.3861944649133
 21
633.4164786258095
  0
LINE
  5
1CC
100
AcDbEntity
  8
struttura
  6
ByLayer
 62
  256
370
   -1
100
AcDbLine
 10
146.3861944649133
 20
633.4164786258095
 11
344.3824165733828
 21
551.4037581298453
  0
LINE
  5
1CD
100
AcDbEntity
  8
struttura
  6
ByLayer
 62
  256
370
   -1
100
AcDbLine
 10
783.4671727912522
 20
1280.538632434993
 11
312.3677854429623
 21
575.4885745413613
  0
LINE
  5
1CE
100
AcDbEntity
  8
struttura
  6
ByLayer
 62
  256
370
   -1
100
AcDbLine
 10
351.4825998483873
 20
1459.472501283878
 11
186.0544942426355
 21
627.809252864519
  0
LINE
  5
1CF
100
AcDbEntity
  8
struttura
  6
ByLayer
 62
  256
370
   -1
100
AcDbLine
 10
148.3753181387098
 20
643.4164786258092
 11
350.046961546888
 21
559.881348780071
  0
LINE
  5
1D0
100
AcDbEntity
  8
struttura
  6
ByLayer
 62
  256
370
   -1
100
AcDbLine
 10
273.0197774161292
 20
1475.079727045168
 11
107.1547832487848
 21
641.2200915064544
  0
LINE
  5
1D1
100
AcDbEntity
  8
struttura
  6
ByLayer
 62
  256
370
   -1
100
AcDbLine
 10
-273.0197774161273
 20
1475.079727045168
 11
-107.1547832487832
 21
641.2200915064548
  0
LINE
  5
1D2
100
AcDbEntity
  8
struttura
  6
ByLayer
 62
  256
370
   -1
100
AcDbLine
 10
-107.1547832487832
 20
641.2200915064548
 11
107.1547832487848
 21
641.2200915064544
  0
LINE
  5
1D3
100
AcDbEntity
  8
struttura
  6
ByLayer
 62
  256
370
   -1
100
AcDbLine
 10
233.7883661999999
 20
1482.883339925813
 11
68.36026059424864
 21
651.2200915064547
  0
LINE
  5
1D4
100
AcDbEntity
  8
struttura
  6
ByLayer
 62
  256
370
   -1
100
AcDbLine
 10
-233.7883661999981
 20
1482.883339925814
 11
-68.36026059424697
 21
651.2200915064545
  0
LINE
  5
1D5
100
AcDbEntity
  8
struttura
  6
ByLayer
 62
  256
370
   -1
100
AcDbLine
 10
-109.1439069225797
 20
651.2200915064544
 11
109.1439069225814
 21
651.2200915064545
  0
LINE
  5
1D6
100
AcDbEntity
  8
struttura
  6
ByLayer
 62
  256
370
   -1
100
AcDbLine
 10
-312.2511886322562
 20
1467.276114164523
 11
-146.3861944649116
 21
633.4164786258098
  0
LINE
  5
1D7
100
AcDbEntity
  8
struttura
  6
ByLayer
 62
  256
370
   -1
100
AcDbLine
 10
-816.7259572833525
 20
1258.31582311421
 11
-344.3824165733814
 21
551.4037581298461
  0
LINE
  5
1D8
100
AcDbEntity
  8
struttura
  6
ByLayer
 62
  256
370
   -1
100
AcDbLine
 10
-344.3824165733814
 20
551.4037581298461
 11
-146.3861944649116
 21
633.4164786258098
  0
LINE
  5
1D9
100
AcDbEntity
  8
struttura
  6
ByLayer
 62
  256
370
   -1
100
AcDbLine
 10
-351.4825998483854
 20
1459.472501283878
 11
-186.054494242634
 21
627.8092528645196
  0
LINE
  5
1DA
100
AcDbEntity
  8
struttura
  6
ByLayer
 62
  256
370
   -1
100
AcDbLine
 10
-783.4671727912507
 20
1280.538632434994
 11
-312.3677854429607
 21
575.488574541362
  0
LINE
  5
1DB
100
AcDbEntity
  8
struttura
  6
ByLayer
 62
  256
370
   -1
100
AcDbLine
 10
-350.0469615468865
 20
559.8813487800718
 11
-148.3753181387082
 21
643.4164786258098
  0
LINE
  5
1DC
100
AcDbEntity
  8
struttura
  6
ByLayer
 62
  256
370
   -1
100
AcDbLine
 10
-849.9847417754528
 20
1236.093013793427
 11
-377.6412010654821
 21
529.1809488090629
  0
LINE
  5
1DD
100
AcDbEntity
  8
struttura
  6
ByLayer
 62
  256
370
   -1
100
AcDbLine
 10
-1236.093013793425
 20
849.9847417754546
 11
-529.180948809062
 21
377.6412010654835
  0
LINE
  5
1DE
100
AcDbEntity
  8
struttura
  6
ByLayer
 62
  256
370
   -1
100
AcDbLine
 10
-529.180948809062
 20
377.6412010654835
 11
-377.6412010654821
 21
529.1809488090629
  0
LINE
  5
1DF
100
AcDbEntity
  8
struttura
  6
ByLayer
 62
  256
370
   -1
100
AcDbLine
 10
-883.2435262675547
 20
1213.870204472643
 11
-412.1441389192652
 21
508.8201465790108
  0
LINE
  5
1E0
100
AcDbEntity
  8
struttura
  6
ByLayer
 62
  256
370
   -1
100
AcDbLine
 10
-1213.870204472641
 20
883.2435262675564
 11
-508.8201465790095
 21
412.1441389192664
  0
LINE
  5
1E1
100
AcDbEntity
  8
struttura
  6
ByLayer
 62
  256
370
   -1
100
AcDbLine
 10
-537.6585394592875
 20
383.3057460389885
 11
-383.3057460389872
 21
537.6585394592886
  0
LINE
  5
1E2
100
AcDbEntity
  8
struttura
  6
ByLayer
 62
  256
370
   -1
100
AcDbLine
 10
-1258.315823114209
 20
816.7259572833541
 11
-551.4037581298453
 21
344.3824165733828
  0
LINE
  5
1E3
100
AcDbEntity
  8
struttura
  6
ByLayer
 62
  256
370
   -1
100
AcDbLine
 10
-1467.276114164523
 20
312.2511886322582
 11
-633.4164786258095
 21
146.3861944649133
  0
LINE
  5
1E4
100
AcDbEntity
  8
struttura
  6
ByLayer
 62
  256
370
   -1
100
AcDbLine
 10
-633.4164786258095
 20
146.3861944649133
 11
-551.4037581298453
 21
344.3824165733828
  0
LINE
  5
1E5
100
AcDbEntity
  8
struttura
  6
ByLayer
 62
  256
370
   -1
100
AcDbLine
 10
-1280.538632434993
 20
783.4671727912524
 11
-575.4885745413613
 21
312.3677854429624
  0
LINE
  5
1E6
100
AcDbEntity
  8
struttura
  6
ByLayer
 62
  256
370
   -1
100
AcDbLine
 10
-1459.472501283878
 20
351.4825998483873
 11
-627.809252864519
 21
186.0544942426355
  0
LINE
  5
1E7
100
AcDbEntity
  8
struttura
  6
ByLayer
 62
  256
370
   -1
100
AcDbLine
 10
-643.4164786258092
 20
148.3753181387098
 11
-559.881348780071
 21
350.046961546888
  0
LINE
  5
1E8
100
AcDbEntity
  8
0
  6
ByLayer
 62
  256
370
   -1
100
AcDbLine
 10
-870
 20
3000
 11
-869.9999999999998
 21
3916.914455562211
  0
LINE
  5
1E9
100
AcDbEntity
  8
scalino
  6
ByLayer
 62
  256
370
   -1
100
AcDbLine
 10
-479.4318615804031
 20
57.87619326237473
 11
-379.9341691654797
 21
298.0848717153092
  0
LINE
  5
1EA
100
AcDbEntity
  8
scalino
  6
ByLayer
 62
  256
370
   -1
100
AcDbLine
 10
-1128.256820237771
 20
798.0980814329516
 11
-1301.354716159377
 21
539.038772891406
  0
LINE
  5
1EB
100
AcDbEntity
  8
scalino
  6
ByLayer
 62
  256
370
   -1
100
AcDbLine
 10
-1301.354716159377
 20
539.038772891406
 11
-1362.138613943311
 21
233.45748307689
  0
LINE
  5
1EC
100
AcDbEntity
  8
scalino
  6
ByLayer
 62
  256
370
   -1
100
AcDbLine
 10
-479.4318615804031
 20
57.87619326237473
 11
-1362.138613943311
 21
233.4574830768908
  0
LINE
  5
1ED
100
AcDbEntity
  8
scalino
  6
ByLayer
 62
  256
370
   -1
100
AcDbLine
 10
-465.0855444377896
 20
-129.9999999999976
 11
-465.0855444377896
 21
130.0000000000024
  0
LINE
  5
1EE
100
AcDbEntity
  8
scalino
  6
ByLayer
 62
  256
370
   -1
100
AcDbLine
 10
-1347.792296800698
 20
305.5812898145178
 11
-1408.576194584633
 21
2.387423592153937e-12
  0
LINE
  5
1EF
100
AcDbEntity
  8
scalino
  6
ByLayer
 62
  256
370
   -1
100
AcDbLine
 10
-1408.576194584633
 20
2.387423592153937e-12
 11
-1347.792296800697
 21
-305.5812898145135
  0
LINE
  5
1F0
100
AcDbEntity
  8
scalino
  6
ByLayer
 62
  256
370
   -1
100
AcDbLine
 10
-465.0855444377896
 20
-129.9999999999976
 11
-1347.792296800698
 21
-305.5812898145127
  0
LINE
  5
1F1
100
AcDbEntity
  8
scalino
  6
ByLayer
 62
  256
370
   -1
100
AcDbLine
 10
-379.9341691654815
 20
-298.0848717153048
 11
-479.4318615804049
 21
-57.87619326237029
  0
LINE
  5
1F2
100
AcDbEntity
  8
scalino
  6
ByLayer
 62
  256
370
   -1
100
AcDbLine
 10
-1362.138613943313
 20
-233.4574830768859
 11
-1301.354716159379
 21
-539.0387728914014
  0
LINE
  5
1F3
100
AcDbEntity
  8
scalino
  6
ByLayer
 62
  256
370
   -1
100
AcDbLine
 10
-1301.354716159379
 20
-539.0387728914014
 11
-1128.256820237773
 21
-798.0980814329474
  0
LINE
  5
1F4
100
AcDbEntity
  8
scalino
  6
ByLayer
 62
  256
370
   -1
100
AcDbLine
 10
-379.9341691654815
 20
-298.0848717153048
 11
-1128.256820237773
 21
-798.0980814329466
  0
LINE
  5
1F5
100
AcDbEntity
  8
scalino
  6
ByLayer
 62
  256
370
   -1
100
AcDbLine
 10
-236.9412607495489
 20
-420.7890238580479
 11
-420.7890238580512
 21
-236.9412607495455
  0
LINE
  5
1F6
100
AcDbEntity
  8
scalino
  6
ByLayer
 62
  256
370
   -1
100
AcDbLine
 10
-1169.111674930343
 20
-736.954470467188
 11
-996.0137790087374
 21
-996.0137790087338
  0
LINE
  5
1F7
100
AcDbEntity
  8
scalino
  6
ByLayer
 62
  256
370
   -1
100
AcDbLine
 10
-996.0137790087374
 20
-996.0137790087338
 11
-736.9544704671911
 21
-1169.111674930339
  0
LINE
  5
1F8
100
AcDbEntity
  8
scalino
  6
ByLayer
 62
  256
370
   -1
100
AcDbLine
 10
-236.9412607495489
 20
-420.7890238580479
 11
-736.9544704671919
 21
-1169.111674930339
  0
LINE
  5
1F9
100
AcDbEntity
  8
scalino
  6
ByLayer
 62
  256
370
   -1
100
AcDbLine
 10
-57.87619326237476
 20
-479.4318615804031
 11
-298.0848717153092
 21
-379.9341691654797
  0
LINE
  5
1FA
100
AcDbEntity
  8
scalino
  6
ByLayer
 62
  256
370
   -1
100
AcDbLine
 10
-798.0980814329517
 20
-1128.256820237771
 11
-539.0387728914061
 21
-1301.354716159377
  0
LINE
  5
1FB
100
AcDbEntity
  8
scalino
  6
ByLayer
 62
  256
370
   -1
100
AcDbLine
 10
-539.0387728914061
 20
-1301.354716159377
 11
-233.4574830768901
 21
-1362.138613943311
  0
LINE
  5
1FC
100
AcDbEntity
  8
scalino
  6
ByLayer
 62
  256
370
   -1
100
AcDbLine
 10
-57.87619326237476
 20
-479.4318615804031
 11
-233.4574830768909
 21
-1362.138613943311
  0
LINE
  5
1FD
100
AcDbEntity
  8
scalino
  6
ByLayer
 62
  256
370
   -1
100
AcDbLine
 10
129.9999999999976
 20
-465.0855444377896
 11
-130.0000000000024
 21
-465.0855444377895
  0
LINE
  5
1FE
100
AcDbEntity
  8
scalino
  6
ByLayer
 62
  256
370
   -1
100
AcDbLine
 10
-305.5812898145179
 20
-1347.792296800698
 11
-2.444267011014745e-12
 21
-1408.576194584633
  0
LINE
  5
1FF
100
AcDbEntity
  8
scalino
  6
ByLayer
 62
  256
370
   -1
100
AcDbLine
 10
-2.444267011014745e-12
 20
-1408.576194584633
 11
305.5812898145134
 21
-1347.792296800697
  0
LINE
  5
200
100
AcDbEntity
  8
scalino
  6
ByLayer
 62
  256
370
   -1
100
AcDbLine
 10
129.9999999999976
 20
-465.0855444377896
 11
305.5812898145126
 21
-1347.792296800698
  0
LINE
  5
201
100
AcDbEntity
  8
scalino
  6
ByLayer
 62
  256
370
   -1
100
AcDbLine
 10
298.0848717153048
 20
-379.9341691654815
 11
57.87619326237029
 21
-479.4318615804049
  0
LINE
  5
202
100
AcDbEntity
  8
scalino
  6
ByLayer
 62
  256
370
   -1
100
AcDbLine
 10
233.4574830768859
 20
-1362.138613943313
 11
539.0387728914014
 21
-1301.354716159379
  0
LINE
  5
203
100
AcDbEntity
  8
scalino
  6
ByLayer
 62
  256
370
   -1
100
AcDbLine
 10
539.0387728914014
 20
-1301.354716159379
 11
798.0980814329474
 21
-1128.256820237773
  0
LINE
  5
204
100
AcDbEntity
  8
scalino
  6
ByLayer
 62
  256
370
   -1
100
AcDbLine
 10
298.0848717153048
 20
-379.9341691654815
 11
798.0980814329466
 21
-1128.256820237773
  0
LINE
  5
205
100
AcDbEntity
  8
scalino
  6
ByLayer
 62
  256
370
   -1
100
AcDbLine
 10
420.7890238580479
 20
-236.941260749549
 11
236.9412607495455
 21
-420.7890238580513
  0
LINE
  5
206
100
AcDbEntity
  8
scalino
  6
ByLayer
 62
  256
370
   -1
100
AcDbLine
 10
736.954470467188
 20
-1169.111674930343
 11
996.0137790087338
 21
-996.0137790087374
  0
LINE
  5
207
100
AcDbEntity
  8
scalino
  6
ByLayer
 62
  256
370
   -1
100
AcDbLine
 10
996.0137790087338
 20
-996.0137790087374
 11
1169.111674930339
 21
-736.9544704671912
  0
LINE
  5
208
100
AcDbEntity
  8
scalino
  6
ByLayer
 62
  256
370
   -1
100
AcDbLine
 10
420.7890238580479
 20
-236.941260749549
 11
1169.111674930339
 21
-736.9544704671919
  0
LINE
  5
209
100
AcDbEntity
  8
scalino
  6
ByLayer
 62
  256
370
   -1
100
AcDbLine
 10
479.4318615804031
 20
-57.87619326237478
 11
379.9341691654797
 21
-298.0848717153093
  0
LINE
  5
20A
100
AcDbEntity
  8
scalino
  6
ByLayer
 62
  256
370
   -1
100
AcDbLine
 10
1128.256820237771
 20
-798.0980814329517
 11
1301.354716159377
 21
-539.0387728914061
  0
LINE
  5
20B
100
AcDbEntity
  8
scalino
  6
ByLayer
 62
  256
370
   -1
100
AcDbLine
 10
1301.354716159377
 20
-539.0387728914061
 11
1362.138613943311
 21
-233.4574830768902
  0
LINE
  5
20C
100
AcDbEntity
  8
scalino
  6
ByLayer
 62
  256
370
   -1
100
AcDbLine
 10
479.4318615804031
 20
-57.87619326237478
 11
1362.138613943311
 21
-233.457483076891
  0
LINE
  5
20D
100
AcDbEntity
  8
scalino
  6
ByLayer
 62
  256
370
   -1
100
AcDbLine
 10
465.0855444377896
 20
129.9999999999976
 11
465.0855444377896
 21
-130.0000000000024
  0
LINE
  5
20E
100
AcDbEntity
  8
scalino
  6
ByLayer
 62
  256
370
   -1
100
AcDbLine
 10
1347.792296800698
 20
-305.5812898145181
 11
1408.576194584633
 21
-2.614797267597169e-12
  0
LINE
  5
20F
100
AcDbEntity
  8
scalino
  6
ByLayer
 62
  256
370
   -1
100
AcDbLine
 10
1408.576194584633
 20
-2.614797267597169e-12
 11
1347.792296800698
 21
305.5812898145133
  0
LINE
  5
210
100
AcDbEntity
  8
scalino
  6
ByLayer
 62
  256
370
   -1
100
AcDbLine
 10
465.0855444377896
 20
129.9999999999976
 11
1347.792296800698
 21
305.5812898145125
  0
LINE
  5
211
100
AcDbEntity
  8
scalino
  6
ByLayer
 62
  256
370
   -1
100
AcDbLine
 10
379.9341691654816
 20
298.0848717153048
 11
479.4318615804049
 21
57.87619326237026
  0
LINE
  5
212
100
AcDbEntity
  8
scalino
  6
ByLayer
 62
  256
370
   -1
100
AcDbLine
 10
1362.138613943313
 20
233.4574830768858
 11
1301.354716159379
 21
539.0387728914013
  0
LINE
  5
213
100
AcDbEntity
  8
scalino
  6
ByLayer
 62
  256
370
   -1
100
AcDbLine
 10
1301.354716159379
 20
539.0387728914013
 11
1128.256820237773
 21
798.0980814329473
  0
LINE
  5
214
100
AcDbEntity
  8
scalino
  6
ByLayer
 62
  256
370
   -1
100
AcDbLine
 10
379.9341691654816
 20
298.0848717153048
 11
1128.256820237773
 21
798.0980814329466
  0
LINE
  5
215
100
AcDbEntity
  8
scalino
  6
ByLayer
 62
  256
370
   -1
100
AcDbLine
 10
236.9412607495491
 20
420.7890238580477
 11
420.7890238580514
 21
236.9412607495453
  0
LINE
  5
216
100
AcDbEntity
  8
scalino
  6
ByLayer
 62
  256
370
   -1
100
AcDbLine
 10
1169.111674930343
 20
736.9544704671871
 11
996.0137790087379
 21
996.0137790087333
  0
LINE
  5
217
100
AcDbEntity
  8
scalino
  6
ByLayer
 62
  256
370
   -1
100
AcDbLine
 10
996.0137790087379
 20
996.0137790087333
 11
736.9544704671916
 21
1169.111674930339
  0
LINE
  5
218
100
AcDbEntity
  8
scalino
  6
ByLayer
 62
  256
370
   -1
100
AcDbLine
 10
236.9412607495491
 20
420.7890238580477
 11
736.9544704671924
 21
1169.111674930338
  0
LINE
  5
219
100
AcDbEntity
  8
scalino
  6
ByLayer
 62
  256
370
   -1
100
AcDbLine
 10
57.87619326237481
 20
479.4318615804031
 11
298.0848717153093
 21
379.9341691654797
  0
LINE
  5
21A
100
AcDbEntity
  8
scalino
  6
ByLayer
 62
  256
370
   -1
100
AcDbLine
 10
798.0980814329519
 20
1128.256820237771
 11
539.0387728914062
 21
1301.354716159377
  0
LINE
  5
21B
100
AcDbEntity
  8
scalino
  6
ByLayer
 62
  256
370
   -1
100
AcDbLine
 10
539.0387728914062
 20
1301.354716159377
 11
233.4574830768903
 21
1362.138613943311
  0
LINE
  5
21C
100
AcDbEntity
  8
scalino
  6
ByLayer
 62
  256
370
   -1
100
AcDbLine
 10
57.87619326237481
 20
479.4318615804031
 11
233.4574830768911
 21
1362.138613943311
  0
LINE
  5
21D
100
AcDbEntity
  8
scalino
  6
ByLayer
 62
  256
370
   -1
100
AcDbLine
 10
-129.9999999999977
 20
465.0855444377895
 11
130.0000000000022
 21
465.0855444377896
  0
LINE
  5
21E
100
AcDbEntity
  8
scalino
  6
ByLayer
 62
  256
370
   -1
100
AcDbLine
 10
305.5812898145176
 20
1347.792296800698
 11
2.046363078989089e-12
 21
1408.576194584633
  0
LINE
  5
21F
100
AcDbEntity
  8
scalino
  6
ByLayer
 62
  256
370
   -1
100
AcDbLine
 10
2.046363078989089e-12
 20
1408.576194584633
 11
-305.5812898145138
 21
1347.792296800697
  0
LINE
  5
220
100
AcDbEntity
  8
scalino
  6
ByLayer
 62
  256
370
   -1
100
AcDbLine
 10
-129.9999999999977
 20
465.0855444377895
 11
-305.5812898145131
 21
1347.792296800698
  0
LINE
  5
221
100
AcDbEntity
  8
scalino
  6
ByLayer
 62
  256
370
   -1
100
AcDbLine
 10
-298.0848717153048
 20
379.9341691654816
 11
-57.87619326237021
 21
479.4318615804049
  0
LINE
  5
222
100
AcDbEntity
  8
scalino
  6
ByLayer
 62
  256
370
   -1
100
AcDbLine
 10
-233.4574830768856
 20
1362.138613943313
 11
-539.0387728914012
 21
1301.354716159379
  0
LINE
  5
223
100
AcDbEntity
  8
scalino
  6
ByLayer
 62
  256
370
   -1
100
AcDbLine
 10
-539.0387728914012
 20
1301.354716159379
 11
-798.0980814329471
 21
1128.256820237773
  0
LINE
  5
224
100
AcDbEntity
  8
scalino
  6
ByLayer
 62
  256
370
   -1
100
AcDbLine
 10
-298.0848717153048
 20
379.9341691654816
 11
-798.0980814329464
 21
1128.256820237773
  0
LINE
  5
225
100
AcDbEntity
  8
scalino
  6
ByLayer
 62
  256
370
   -1
100
AcDbLine
 10
-420.7890238580477
 20
236.9412607495492
 11
-236.9412607495452
 21
420.7890238580515
  0
LINE
  5
226
100
AcDbEntity
  8
scalino
  6
ByLayer
 62
  256
370
   -1
100
AcDbLine
 10
-736.9544704671871
 20
1169.111674930343
 11
-996.0137790087332
 21
996.013779008738
  0
LINE
  5
227
100
AcDbEntity
  8
scalino
  6
ByLayer
 62
  256
370
   -1
100
AcDbLine
 10
-996.0137790087332
 20
996.013779008738
 11
-1169.111674930339
 21
736.9544704671919
  0
LINE
  5
228
100
AcDbEntity
  8
scalino
  6
ByLayer
 62
  256
370
   -1
100
AcDbLine
 10
-420.7890238580477
 20
236.9412607495492
 11
-1169.111674930338
 21
736.9544704671924
  0
CIRCLE
  5
229
100
AcDbEntity
  8
interno_scalini
  6
ByLayer
 62
  256
370
   -1
100
AcDbCircle
 10
0
 20
0
 40
482.9125838544638
  0
LINE
  5
22A
100
AcDbEntity
  8
interno_scalini
  6
ByLayer
 62
  256
370
   -1
100
AcDbLine
 10
-379.9341691654797
 20
298.0848717153092
 11
-1128.256820237771
 21
798.0980814329516
  0
LINE
  5
22B
100
AcDbEntity
  8
interno_scalini
  6
ByLayer
 62
  256
370
   -1
100
AcDbLine
 10
-465.0855444377896
 20
130.0000000000024
 11
-1347.792296800698
 21
305.5812898145178
  0
LINE
  5
22C
100
AcDbEntity
  8
interno_scalini
  6
ByLayer
 62
  256
370
   -1
100
AcDbLine
 10
-479.4318615804049
 20
-57.87619326237029
 11
-1362.138613943313
 21
-233.4574830768859
  0
LINE
  5
22D
100
AcDbEntity
  8
interno_scalini
  6
ByLayer
 62
  256
370
   -1
100
AcDbLine
 10
-420.7890238580512
 20
-236.9412607495455
 11
-1169.111674930343
 21
-736.954470467188
  0
LINE
  5
22E
100
AcDbEntity
  8
interno_scalini
  6
ByLayer
 62
  256
370
   -1
100
AcDbLine
 10
-298.0848717153092
 20
-379.9341691654797
 11
-798.0980814329517
 21
-1128.256820237771
  0
LINE
  5
22F
100
AcDbEntity
  8
interno_scalini
  6
ByLayer
 62
  256
370
   -1
100
AcDbLine
 10
-130.0000000000024
 20
-465.0855444377895
 11
-305.5812898145179
 21
-1347.792296800698
  0
LINE
  5
230
100
AcDbEntity
  8
interno_scalini
  6
ByLayer
 62
  256
370
   -1
100
AcDbLine
 10
57.87619326237029
 20
-479.4318615804049
 11
233.4574830768859
 21
-1362.138613943313
  0
LINE
  5
231
100
AcDbEntity
  8
interno_scalini
  6
ByLayer
 62
  256
370
   -1
100
AcDbLine
 10
236.9412607495455
 20
-420.7890238580513
 11
736.954470467188
 21
-1169.111674930343
  0
LINE
  5
232
100
AcDbEntity
  8
interno_scalini
  6
ByLayer
 62
  256
370
   -1
100
AcDbLine
 10
379.9341691654797
 20
-298.0848717153093
 11
1128.256820237771
 21
-798.0980814329517
  0
LINE
  5
233
100
AcDbEntity
  8
interno_scalini
  6
ByLayer
 62
  256
370
   -1
100
AcDbLine
 10
465.0855444377896
 20
-130.0000000000024
 11
1347.792296800698
 21
-305.5812898145181
  0
LINE
  5
234
100
AcDbEntity
  8
interno_scalini
  6
ByLayer
 62
  256
370
   -1
100
AcDbLine
 10
479.4318615804049
 20
57.87619326237026
 11
1362.138613943313
 21
233.4574830768858
  0
LINE
  5
235
100
AcDbEntity
  8
interno_scalini
  6
ByLayer
 62
  256
370
   -1
100
AcDbLine
 10
420.7890238580514
 20
236.9412607495453
 11
1169.111674930343
 21
736.9544704671871
  0
LINE
  5
236
100
AcDbEntity
  8
interno_scalini
  6
ByLayer
 62
  256
370
   -1
100
AcDbLine
 10
298.0848717153093
 20
379.9341691654797
 11
798.0980814329519
 21
1128.256820237771
  0
LINE
  5
237
100
AcDbEntity
  8
interno_scalini
  6
ByLayer
 62
  256
370
   -1
100
AcDbLine
 10
130.0000000000022
 20
465.0855444377896
 11
305.5812898145176
 21
1347.792296800698
  0
LINE
  5
238
100
AcDbEntity
  8
interno_scalini
  6
ByLayer
 62
  256
370
   -1
100
AcDbLine
 10
-57.87619326237021
 20
479.4318615804049
 11
-233.4574830768856
 21
1362.138613943313
  0
LINE
  5
239
100
AcDbEntity
  8
interno_scalini
  6
ByLayer
 62
  256
370
   -1
100
AcDbLine
 10
-236.9412607495452
 20
420.7890238580515
 11
-736.9544704671871
 21
1169.111674930343
  0
CIRCLE
  5
23A
100
AcDbEntity
  8
interno_scalini
  6
ByLayer
 62
  256
370
   -1
100
AcDbCircle
 10
0
 20
0
 40
1408.576194584633
  0
LINE
  5
23B
100
AcDbEntity
  8
assi
  6
ByLayer
 62
  256
370
   -1
100
AcDbLine
 10
-429.6830153729414
 20
177.980532488842
 11
-1276.801513930597
 21
528.8685035285565
  0
LINE
  5
23C
100
AcDbEntity
  8
assi
  6
ByLayer
 62
  256
370
   -1
100
AcDbLine
 10
-465.0855444377896
 20
2.330580173293129e-12
 11
-1382
 21
2.557953848736361e-12
  0
LINE
  5
23D
100
AcDbEntity
  8
assi
  6
ByLayer
 62
  256
370
   -1
100
AcDbLine
 10
-429.6830153729432
 20
-177.9805324888376
 11
-1276.801513930599
 21
-528.8685035285515
  0
LINE
  5
23E
100
AcDbEntity
  8
assi
  6
ByLayer
 62
  256
370
   -1
100
AcDbLine
 10
-328.8651423038001
 20
-328.8651423037967
 11
-977.2215715998107
 21
-977.2215715998068
  0
LINE
  5
23F
100
AcDbEntity
  8
assi
  6
ByLayer
 62
  256
370
   -1
100
AcDbLine
 10
-177.980532488842
 20
-429.6830153729414
 11
-528.8685035285566
 21
-1276.801513930597
  0
LINE
  5
240
100
AcDbEntity
  8
assi
  6
ByLayer
 62
  256
370
   -1
100
AcDbLine
 10
-2.330580173293129e-12
 20
-465.0855444377896
 11
-2.671640686457977e-12
 21
-1382
  0
LINE
  5
241
100
AcDbEntity
  8
assi
  6
ByLayer
 62
  256
370
   -1
100
AcDbLine
 10
177.9805324888376
 20
-429.6830153729432
 11
528.8685035285515
 21
-1276.801513930599
  0
LINE
  5
242
100
AcDbEntity
  8
assi
  6
ByLayer
 62
  256
370
   -1
100
AcDbLine
 10
328.8651423037967
 20
-328.8651423038001
 11
977.2215715998068
 21
-977.2215715998107
  0
LINE
  5
243
100
AcDbEntity
  8
assi
  6
ByLayer
 62
  256
370
   -1
100
AcDbLine
 10
429.6830153729414
 20
-177.980532488842
 11
1276.801513930597
 21
-528.8685035285566
  0
LINE
  5
244
100
AcDbEntity
  8
assi
  6
ByLayer
 62
  256
370
   -1
100
AcDbLine
 10
465.0855444377896
 20
-2.387423592153937e-12
 11
1382
 21
-2.785327524179593e-12
  0
LINE
  5
245
100
AcDbEntity
  8
assi
  6
ByLayer
 62
  256
370
   -1
100
AcDbLine
 10
429.6830153729433
 20
177.9805324888376
 11
1276.8015139306
 21
528.8685035285514
  0
LINE
  5
246
100
AcDbEntity
  8
assi
  6
ByLayer
 62
  256
370
   -1
100
AcDbLine
 10
328.8651423038003
 20
328.8651423037966
 11
977.2215715998111
 21
977.2215715998063
  0
LINE
  5
247
100
AcDbEntity
  8
assi
  6
ByLayer
 62
  256
370
   -1
100
AcDbLine
 10
177.980532488842
 20
429.6830153729414
 11
528.8685035285567
 21
1276.801513930597
  0
LINE
  5
248
100
AcDbEntity
  8
assi
  6
ByLayer
 62
  256
370
   -1
100
AcDbLine
 10
2.188471626141109e-12
 20
465.0855444377896
 11
2.216893335571513e-12
 21
1382
  0
LINE
  5
249
100
AcDbEntity
  8
assi
  6
ByLayer
 62
  256
370
   -1
100
AcDbLine
 10
-177.9805324888376
 20
429.6830153729433
 11
-528.8685035285514
 21
1276.801513930599
  0
LINE
  5
24A
100
AcDbEntity
  8
assi
  6
ByLayer
 62
  256
370
   -1
100
AcDbLine
 10
-328.8651423037966
 20
328.8651423038003
 11
-977.2215715998062
 21
977.2215715998112
  0
LINE
  5
24B
100
AcDbEntity
  8
assi
  6
ByLayer
 62
  256
370
   -1
100
AcDbLine
 10
-641.2200915064548
 20
1.151079231931362e-12
 11
-1500
 21
1.762145984685048e-12
  0
LINE
  5
24C
100
AcDbEntity
  8
assi
  6
ByLayer
 62
  256
370
   -1
100
AcDbLine
 10
-592.4101183778284
 20
-245.384305519146
 11
-1385.819298766931
 21
-574.0251485476331
  0
LINE
  5
24D
100
AcDbEntity
  8
assi
  6
ByLayer
 62
  256
370
   -1
100
AcDbLine
 10
-453.4110749372734
 20
-453.4110749372718
 11
-1060.660171779823
 21
-1060.66017177982
  0
LINE
  5
24E
100
AcDbEntity
  8
assi
  6
ByLayer
 62
  256
370
   -1
100
AcDbLine
 10
-245.3843055191481
 20
-592.4101183778275
 11
-574.0251485476364
 21
-1385.81929876693
  0
LINE
  5
24F
100
AcDbEntity
  8
assi
  6
ByLayer
 62
  256
370
   -1
100
AcDbLine
 10
-1.193711796076968e-12
 20
-641.2200915064548
 11
-1.875832822406664e-12
 21
-1500
  0
LINE
  5
250
100
AcDbEntity
  8
assi
  6
ByLayer
 62
  256
370
   -1
100
AcDbLine
 10
245.3843055191459
 20
-592.4101183778284
 11
574.0251485476331
 21
-1385.819298766931
  0
LINE
  5
251
100
AcDbEntity
  8
assi
  6
ByLayer
 62
  256
370
   -1
100
AcDbLine
 10
453.4110749372718
 20
-453.4110749372734
 11
1060.66017177982
 21
-1060.660171779823
  0
LINE
  5
252
100
AcDbEntity
  8
assi
  6
ByLayer
 62
  256
370
   -1
100
AcDbLine
 10
592.4101183778275
 20
-245.3843055191482
 11
1385.81929876693
 21
-574.0251485476365
  0
LINE
  5
253
100
AcDbEntity
  8
assi
  6
ByLayer
 62
  256
370
   -1
100
AcDbLine
 10
641.2200915064548
 20
-1.222133505507372e-12
 11
1500
 21
-1.932676241267473e-12
  0
LINE
  5
254
100
AcDbEntity
  8
assi
  6
ByLayer
 62
  256
370
   -1
100
AcDbLine
 10
592.4101183778284
 20
245.3843055191459
 11
1385.819298766931
 21
574.025148547633
  0
LINE
  5
255
100
AcDbEntity
  8
assi
  6
ByLayer
 62
  256
370
   -1
100
AcDbLine
 10
453.4110749372737
 20
453.4110749372718
 11
1060.660171779823
 21
1060.66017177982
  0
LINE
  5
256
100
AcDbEntity
  8
assi
  6
ByLayer
 62
  256
370
   -1
100
AcDbLine
 10
245.3843055191485
 20
592.4101183778273
 11
574.0251485476372
 21
1385.819298766929
  0
LINE
  5
257
100
AcDbEntity
  8
assi
  6
ByLayer
 62
  256
370
   -1
100
AcDbLine
 10
1.264766069652978e-12
 20
641.2200915064548
 11
2.046363078989089e-12
 21
1500
  0
LINE
  5
258
100
AcDbEntity
  8
assi
  6
ByLayer
 62
  256
370
   -1
100
AcDbLine
 10
-245.3843055191461
 20
592.4101183778284
 11
-574.0251485476333
 21
1385.819298766931
  0
LINE
  5
259
100
AcDbEntity
  8
assi
  6
ByLayer
 62
  256
370
   -1
100
AcDbLine
 10
-453.4110749372717
 20
453.4110749372736
 11
-1060.66017177982
 21
1060.660171779823
  0
LINE
  5
25A
100
AcDbEntity
  8
assi
  6
ByLayer
 62
  256
370
   -1
100
AcDbLine
 10
-592.4101183778273
 20
245.3843055191485
 11
-1385.819298766929
 21
574.0251485476372
  0
CIRCLE
  5
25B
100
AcDbEntity
  8
80cm
  6
ByLayer
 62
  256
370
   -1
100
AcDbCircle
 10
0
 20
0
 40
700
  0
DIMENSION
  5
25C
100
AcDbEntity
  8
quote
  6
ByLayer
 62
  256
370
   -1
100
AcDbDimension
  2
*D1
 10
0
 20
0
 30
0
 11
655.9598889835261
 21
-257.3263757514016
 31
0
 70
   36
 71
    5
 72
    0
  3
Standard
 53
0
210
0
220
0
230
1
100
AcDbRadialDimension
 15
1294.685808654214
 25
-554.8653465660921
 35
0
 40
0
  0
DIMENSION
  5
25D
100
AcDbEntity
  8
quote
  6
ByLayer
 62
  256
370
   -1
100
AcDbDimension
  2
*D2
 10
0
 20
0
 30
0
 11
166.2527141323631
 21
-176.4644201528211
 31
0
 70
   36
 71
    5
 72
    0
  3
Standard
 53
0
210
0
220
0
230
1
100
AcDbRadialDimension
 15
298.0848717153047
 25
-379.9341691654816
 35
0
 40
0
  0
LINE
  5
25E
100
AcDbEntity
  8
0
  6
ByLayer
 62
  256
370
   -1
100
AcDbLine
 10
-2000
 20
3000
 11
-1740
 21
3000
  0
LINE
  5
25F
100
AcDbEntity
  8
0
  6
ByLayer
 62
  256
370
   -1
100
AcDbLine
 10
-1564.418710185485
 20
3882.706752362908
 11
-1870
 21
3943.490650146843
  0
LINE
  5
260
100
AcDbEntity
  8
0
  6
ByLayer
 62
  256
370
   -1
100
AcDbLine
 10
-1870
 20
3943.490650146843
 11
-2175.581289814516
 21
3882.706752362908
  0
LINE
  5
261
100
AcDbEntity
  8
0
  6
ByLayer
 62
  256
370
   -1
100
AcDbLine
 10
-2000
 20
3000
 11
-2175.581289814515
 21
3882.706752362908
  0
LINE
  5
262
100
AcDbEntity
  8
0
  6
ByLayer
 62
  256
370
   -1
100
AcDbLine
 10
-1740
 20
3000
 11
-1564.418710185485
 21
3882.706752362908
  0
LINE
  5
263
100
AcDbEntity
  8
gia_tagliati
  6
ByLayer
 62
  256
370
   -1
100
AcDbLine
 10
-2000
 20
3000
 11
-2171.72809583889
 21
3883.464465102898
  0
LINE
  5
264
100
AcDbEntity
  8
gia_tagliati
  6
ByLayer
 62
  256
370
   -1
100
AcDbLine
 10
-1740
 20
3000
 11
-1565.409769230461
 21
3898.188872854613
  0
LINE
  5
265
100
AcDbEntity
  8
gia_tagliati
  6
ByLayer
 62
  256
370
   -1
100
AcDbLine
 10
-1565.409769230461
 20
3898.188872854614
 11
-1871.72809583889
 21
3957.731123875302
  0
LINE
  5
266
100
AcDbEntity
  8
gia_tagliati
  6
ByLayer
 62
  256
370
   -1
100
AcDbLine
 10
-2171.72809583889
 20
3883.464465102898
 11
-1871.72809583889
 21
3957.731123875302
  0
LINE
  5
267
100
AcDbEntity
  8
gia_tagliati
  6
ByLayer
 62
  256
370
   -1
100
AcDbLine
 10
-2000
 20
3000
 11
-1740
 21
3000
  0
DIMENSION
  5
268
100
AcDbEntity
  8
quote
  6
ByLayer
 62
  256
370
   -1
100
AcDbDimension
  2
*D3
 10
-202.0923503268828
 20
297.5616859459008
 30
0
 11
-280.0451996479442
 21
240.3105801897056
 31
0
 70
   33
 71
    5
 72
    0
  3
Standard
 53
0
210
0
220
0
230
1
100
AcDbAlignedDimension
 13
-420.7890238580477
 23
236.9412607495492
 33
0
 14
-298.0848717153048
 24
379.9341691654816
 34
0
  0
DIMENSION
  5
269
100
AcDbEntity
  8
quote
  6
ByLayer
 62
  256
370
   -1
100
AcDbDimension
  2
*D4
 10
64.1506833233822
 20
397.2625288097545
 30
0
 11
-31.45295015498751
 21
411.9008720668564
 31
0
 70
   33
 71
    5
 72
    0
  3
Standard
 53
0
210
0
220
0
230
1
100
AcDbAlignedDimension
 13
-129.9999999999978
 23
465.0855444377896
 33
0
 14
57.87619326237481
 24
479.4318615804031
 34
0
  0
DIMENSION
  5
26A
100
AcDbEntity
  8
quote
  6
ByLayer
 62
  256
370
   -1
100
AcDbDimension
  2
*D5
 10
-397.2625288097545
 20
64.15068332338242
 30
0
 11
-368.2778684100392
 21
-28.1218764606203
 31
0
 70
   33
 71
    5
 72
    0
  3
Standard
 53
0
210
0
220
0
230
1
100
AcDbAlignedDimension
 13
-465.0855444377896
 23
-129.9999999999973
 33
0
 14
-479.431861580403
 24
57.87619326237501
 34
0
  0
DIMENSION
  5
26B
100
AcDbEntity
  8
quote
  6
ByLayer
 62
  256
370
   -1
100
AcDbDimension
  2
*D6
 10
-1362.138613943311
 20
233.4574830768908
 30
0
 11
0
 21
0
 31
0
 70
   34
 71
    5
 72
    0
  3
Standard
 53
0
210
0
220
0
230
1
100
AcDb2LineAngularDimension
 13
-465.0855444377896
 23
-129.9999999999976
 33
0
 14
-1347.792296800698
 24
-305.5812898145127
 34
0
 15
-479.4318615804031
 25
57.87619326237473
 35
0
 16
-200
 26
0
 36
0
  0
LINE
  5
26C
100
AcDbEntity
  8
pannello
  6
ByLayer
 62
  256
370
   -1
100
AcDbLine
 10
4500
 20
0
 11
7000
 21
0
  0
LINE
  5
26D
100
AcDbEntity
  8
pannello
  6
ByLayer
 62
  256
370
   -1
100
AcDbLine
 10
7000
 20
0
 11
7000
 21
1250
  0
LINE
  5
26E
100
AcDbEntity
  8
pannello
  6
ByLayer
 62
  256
370
   -1
100
AcDbLine
 10
4500
 20
1250
 11
4500
 21
0
  0
LINE
  5
26F
100
AcDbEntity
  8
0
  6
ByLayer
 62
  256
370
   -1
100
AcDbLine
 10
5400
 20
-5.968558980384842e-13
 11
5450.723483724194
 21
255.0041729048393
  0
LINE
  5
270
100
AcDbEntity
  8
0
  6
ByLayer
 62
  256
370
   -1
100
AcDbLine
 10
4619.231904464035
 20
599.4192620334203
 11
4500
 21
311.5679812087732
  0
LINE
  5
271
100
AcDbEntity
  8
0
  6
ByLayer
 62
  256
370
   -1
100
AcDbLine
 10
4500
 20
311.5679812087732
 11
4500
 21
-8.920190161036139e-13
  0
LINE
  5
272
100
AcDbEntity
  8
0
  6
ByLayer
 62
  256
370
   -1
100
AcDbLine
 10
5400
 20
-5.968558980384842e-13
 11
4500
 21
0
  0
POINT
  5
273
100
AcDbEntity
  8
pannello
  6
ByLayer
 62
  256
370
   -1
100
AcDbPoint
 10
5750
 20
0
  0
LINE
  5
274
100
AcDbEntity
  8
0
  6
ByLayer
 62
  256
370
   -1
100
AcDbLine
 10
6100
 20
-5.968558980384842e-13
 11
6049.276516275806
 21
255.0041729048394
  0
LINE
  5
275
100
AcDbEntity
  8
0
  6
ByLayer
 62
  256
370
   -1
100
AcDbLine
 10
6880.768095535965
 20
599.4192620334203
 11
7000
 21
311.5679812087731
  0
LINE
  5
276
100
AcDbEntity
  8
0
  6
ByLayer
 62
  256
370
   -1
100
AcDbLine
 10
7000
 20
311.5679812087731
 11
7000
 21
-8.920190161036139e-13
  0
LINE
  5
277
100
AcDbEntity
  8
0
  6
ByLayer
 62
  256
370
   -1
100
AcDbLine
 10
6100
 20
-5.968558980384842e-13
 11
7000
 21
0
  0
POINT
  5
278
100
AcDbEntity
  8
pannello
  6
ByLayer
 62
  256
370
   -1
100
AcDbPoint
 10
4500
 20
625
  0
LINE
  5
279
100
AcDbEntity
  8
0
  6
ByLayer
 62
  256
370
   -1
100
AcDbLine
 10
5400
 20
1250.000000000001
 11
5450.723483724194
 21
994.9958270951606
  0
LINE
  5
27A
100
AcDbEntity
  8
0
  6
ByLayer
 62
  256
370
   -1
100
AcDbLine
 10
4619.231904464035
 20
650.5807379665797
 11
4500
 21
938.4320187912267
  0
LINE
  5
27B
100
AcDbEntity
  8
0
  6
ByLayer
 62
  256
370
   -1
100
AcDbLine
 10
4500
 20
938.4320187912267
 11
4500
 21
1250.000000000001
  0
POINT
  5
27C
100
AcDbEntity
  8
pannello
  6
ByLayer
 62
  256
370
   -1
100
AcDbPoint
 10
5750
 20
1250
  0
LINE
  5
27D
100
AcDbEntity
  8
0
  6
ByLayer
 62
  256
370
   -1
100
AcDbLine
 10
6100
 20
1250.000000000001
 11
6049.276516275806
 21
994.9958270951606
  0
LINE
  5
27E
100
AcDbEntity
  8
0
  6
ByLayer
 62
  256
370
   -1
100
AcDbLine
 10
6880.768095535965
 20
650.5807379665797
 11
7000
 21
938.4320187912269
  0
LINE
  5
27F
100
AcDbEntity
  8
0
  6
ByLayer
 62
  256
370
   -1
100
AcDbLine
 10
7000
 20
938.4320187912269
 11
7000
 21
1250.000000000001
  0
POINT
  5
280
100
AcDbEntity
  8
pannello
  6
ByLayer
 62
  256
370
   -1
100
AcDbPoint
 10
4500
 20
625
  0
LINE
  5
281
100
AcDbEntity
  8
0
  6
ByLayer
 62
  256
370
   -1
100
AcDbLine
 10
6589.276516275806
 20
484.9958270951601
 11
6640
 21
740
  0
LINE
  5
282
100
AcDbEntity
  8
0
  6
ByLayer
 62
  256
370
   -1
100
AcDbLine
 10
5808.508420739841
 20
1084.415089128581
 11
5689.276516275806
 21
796.5638083039339
  0
LINE
  5
283
100
AcDbEntity
  8
0
  6
ByLayer
 62
  256
370
   -1
100
AcDbLine
 10
5689.276516275806
 20
796.5638083039339
 11
5689.276516275806
 21
484.9958270951598
  0
LINE
  5
284
100
AcDbEntity
  8
0
  6
ByLayer
 62
  256
370
   -1
100
AcDbLine
 10
6589.276516275806
 20
484.9958270951601
 11
5689.276516275806
 21
484.9958270951607
  0
LINE
  5
285
100
AcDbEntity
  8
0
  6
ByLayer
 62
  256
370
   -1
100
AcDbLine
 10
6640
 20
740
 11
5808.508420739841
 21
1084.415089128581
  0
LINE
  5
286
100
AcDbEntity
  8
0
  6
ByLayer
 62
  256
370
   -1
100
AcDbLine
 10
4910.723483724194
 20
765.0041729048403
 11
4860
 21
510
  0
LINE
  5
287
100
AcDbEntity
  8
0
  6
ByLayer
 62
  256
370
   -1
100
AcDbLine
 10
5691.491579260159
 20
165.5849108714192
 11
5810.723483724194
 21
453.4361916960661
  0
LINE
  5
288
100
AcDbEntity
  8
0
  6
ByLayer
 62
  256
370
   -1
100
AcDbLine
 10
5810.723483724194
 20
453.4361916960661
 11
5810.723483724194
 21
765.0041729048403
  0
LINE
  5
289
100
AcDbEntity
  8
0
  6
ByLayer
 62
  256
370
   -1
100
AcDbLine
 10
4910.723483724194
 20
765.0041729048403
 11
5810.723483724194
 21
765.0041729048394
  0
LINE
  5
28A
100
AcDbEntity
  8
0
  6
ByLayer
 62
  256
370
   -1
100
AcDbLine
 10
4860
 20
510
 11
5691.491579260159
 21
165.5849108714192
  0
LINE
  5
28B
100
AcDbEntity
  8
pannello
  6
ByLayer
 62
  256
370
   -1
100
AcDbLine
 10
4500
 20
1250.000000000001
 11
7000
 21
1250.000000000001
  0
LINE
  5
28C
100
AcDbEntity
  8
0
  6
ByLayer
 62
  256
370
   -1
100
AcDbLine
 10
5433.641983587209
 20
1250
 11
7000
 21
601.1932660700033
  0
LINE
  5
28D
100
AcDbEntity
  8
0
  6
ByLayer
 62
  256
370
   -1
100
AcDbLine
 10
6066.358016412791
 20
0
 11
4500
 21
648.8067339299969
  0
LINE
  5
28E
100
AcDbEntity
  8
0
  6
ByLayer
 62
  256
370
   -1
100
AcDbLine
 10
5750
 20
131.0397809636283
 11
6942.525460070394
 21
625.0000000000002
  0
LINE
  5
28F
100
AcDbEntity
  8
0
  6
ByLayer
 62
  256
370
   -1
100
AcDbLine
 10
5750
 20
1118.960219036372
 11
4557.474539929606
 21
625.0000000000001
  0
DIMENSION
  5
290
100
AcDbEntity
  8
quote
  6
ByLayer
 62
  256
370
   -1
100
AcDbDimension
  2
*D7
 10
5400
 20
-100
 30
0
 11
4950
 21
-78.125
 31
0
 70
   33
 71
    5
 72
    0
  3
Standard
 53
0
210
0
220
0
230
1
100
AcDbAlignedDimension
 13
4500
 23
0
 33
0
 14
5400
 24
0
 34
0
  0
DIMENSION
  5
291
100
AcDbEntity
  8
quote
  6
ByLayer
 62
  256
370
   -1
100
AcDbDimension
  2
*D8
 10
6066.358016412791
 20
-100
 30
0
 11
5733.179008206394
 21
-78.1250000000003
 31
0
 70
   33
 71
    5
 72
    0
  3
Standard
 53
0
210
0
220
0
230
1
100
AcDbAlignedDimension
 13
5400
 23
-5.968558980384842e-13
 33
0
 14
6066.358016412791
 24
0
 34
0
  0
DIMENSION
  5
292
100
AcDbEntity
  8
quote
  6
ByLayer
 62
  256
370
   -1
100
AcDbDimension
  2
*D9
 10
6066.358016412791
 20
-200
 30
0
 11
5283.179008206394
 21
-178.125
 31
0
 70
   33
 71
    5
 72
    0
  3
Standard
 53
0
210
0
220
0
230
1
100
AcDbAlignedDimension
 13
4500
 23
0
 33
0
 14
6066.358016412791
 24
0
 34
0
  0
DIMENSION
  5
293
100
AcDbEntity
  8
quote
  6
ByLayer
 62
  256
370
   -1
100
AcDbDimension
  2
*D10
 10
4300
 20
1.626727096875102e-13
 30
0
 11
4278.125
 21
324.4033669649984
 31
0
 70
   33
 71
    5
 72
    0
  3
Standard
 53
0
210
0
220
0
230
1
100
AcDbAlignedDimension
 13
4500
 23
648.8067339299969
 33
0
 14
4500
 24
0
 34
0
  0
DIMENSION
  5
294
100
AcDbEntity
  8
quote
  6
ByLayer
 62
  256
370
   -1
100
AcDbDimension
  2
*D11
 10
4400
 20
311.5679812087736
 30
0
 11
4378.125
 21
155.7839906043864
 31
0
 70
   33
 71
    5
 72
    0
  3
Standard
 53
0
210
0
220
0
230
1
100
AcDbAlignedDimension
 13
4500
 23
-8.920190161036139e-13
 33
0
 14
4500
 24
311.5679812087736
 34
0
  0
DIMENSION
  5
295
100
AcDbEntity
  8
quote
  6
ByLayer
 62
  256
370
   -1
100
AcDbDimension
  2
*D12
 10
4400
 20
648.8067339299969
 30
0
 11
4378.125
 21
480.1873575693852
 31
0
 70
   33
 71
    5
 72
    0
  3
Standard
 53
0
210
0
220
0
230
1
100
AcDbAlignedDimension
 13
4500
 23
311.5679812087736
 33
0
 14
4500
 24
648.8067339299969
 34
0
  0
DIMENSION
  5
296
100
AcDbEntity
  8
quote
  6
ByLayer
 62
  256
370
   -1
100
AcDbDimension
  2
*D13
 10
4400
 20
938.4320187912267
 30
0
 11
4378.125
 21
793.6193763606118
 31
0
 70
   33
 71
    5
 72
    0
  3
Standard
 53
0
210
0
220
0
230
1
100
AcDbAlignedDimension
 13
4500
 23
648.8067339299969
 33
0
 14
4500
 24
938.4320187912267
 34
0
  0
DIMENSION
  5
297
100
AcDbEntity
  8
quote
  6
ByLayer
 62
  256
370
   -1
100
AcDbDimension
  2
*D14
 10
4400
 20
1250
 30
0
 11
4378.125
 21
1094.216009395614
 31
0
 70
   33
 71
    5
 72
    0
  3
Standard
 53
0
210
0
220
0
230
1
100
AcDbAlignedDimension
 13
4500
 23
938.4320187912269
 33
0
 14
4500
 24
1250
 34
0
  0
DIMENSION
  5
298
100
AcDbEntity
  8
quote
  6
ByLayer
 62
  256
370
   -1
100
AcDbDimension
  2
*D15
 10
4300
 20
1250.000000000001
 30
0
 11
4278.125
 21
949.4033669649989
 31
0
 70
   33
 71
    5
 72
    0
  3
Standard
 53
0
210
0
220
0
230
1
100
AcDbAlignedDimension
 13
4500
 23
648.8067339299969
 33
0
 14
4500
 24
1250.000000000001
 34
0
  0
DIMENSION
  5
299
100
AcDbEntity
  8
quote
  6
ByLayer
 62
  256
370
   -1
100
AcDbDimension
  2
*D16
 10
6100
 20
-100
 30
0
 11
6083.179008206396
 21
-78.125
 31
0
 70
   33
 71
    5
 72
    0
  3
Standard
 53
0
210
0
220
0
230
1
100
AcDbAlignedDimension
 13
6066.358016412791
 23
0
 33
0
 14
6100
 24
0
 34
0
  0
DIMENSION
  5
29A
100
AcDbEntity
  8
quote
  6
ByLayer
 62
  256
370
   -1
100
AcDbDimension
  2
*D17
 10
7000
 20
-100
 30
0
 11
6550
 21
-78.125
 31
0
 70
   33
 71
    5
 72
    0
  3
Standard
 53
0
210
0
220
0
230
1
100
AcDbAlignedDimension
 13
6100
 23
0
 33
0
 14
7000
 24
0
 34
0
  0
DIMENSION
  5
29B
100
AcDbEntity
  8
quote
  6
ByLayer
 62
  256
370
   -1
100
AcDbDimension
  2
*D18
 10
7000
 20
-200
 30
0
 11
6533.179008206394
 21
-178.1249999999995
 31
0
 70
   33
 71
    5
 72
    0
  3
Standard
 53
0
210
0
220
0
230
1
100
AcDbAlignedDimension
 13
6066.358016412791
 23
0
 33
0
 14
7000
 24
-8.920190161036139e-13
 34
0
  0
DIMENSION
  5
29C
100
AcDbEntity
  8
quote
  6
ByLayer
 62
  256
370
   -1
100
AcDbDimension
  2
*D19
 10
7100
 20
1250
 30
0
 11
7078.125
 21
925.5966330350018
 31
0
 70
   33
 71
    5
 72
    0
  3
Standard
 53
0
210
0
220
0
230
1
100
AcDbAlignedDimension
 13
7000
 23
601.1932660700035
 33
0
 14
7000
 24
1250
 34
0
  0
DIMENSION
  5
29D
100
AcDbEntity
  8
quote
  6
ByLayer
 62
  256
370
   -1
100
AcDbDimension
  2
*D20
 10
7000
 20
1300
 30
0
 11
6216.820991793606
 21
1321.875
 31
0
 70
   33
 71
    5
 72
    0
  3
Standard
 53
0
210
0
220
0
230
1
100
AcDbAlignedDimension
 13
5433.641983587209
 23
1250
 33
0
 14
7000
 24
1250.000000000001
 34
0
  0
DIMENSION
  5
29E
100
AcDbEntity
  8
quote
  6
ByLayer
 62
  256
370
   -1
100
AcDbDimension
  2
*D21
 10
4725.574092724199
 20
1030.828220185559
 30
0
 11
4705.208022842382
 21
1062.941451924242
 31
0
 70
   33
 71
    5
 72
    0
  3
Standard
 53
0
210
0
220
0
230
1
100
AcDbAlignedDimension
 13
4500
 23
648.8067339299969
 33
0
 14
4557.474539929606
 24
625.0000000000001
 34
0
  0
DIMENSION
  5
29F
100
AcDbEntity
  8
quote
  6
ByLayer
 62
  256
370
   -1
100
AcDbDimension
  2
*D22
 10
6805.961615243252
 20
153.9093242968831
 30
0
 11
6785.949728087347
 21
186.4688188029312
 31
0
 70
   33
 71
    5
 72
    0
  3
Standard
 53
0
210
0
220
0
230
1
100
AcDbAlignedDimension
 13
6942.525460070394
 23
625.0000000000002
 33
0
 14
7000
 24
600
 34
0
  0
DIMENSION
  5
2A0
100
AcDbEntity
  8
quote
  6
ByLayer
 62
  256
370
   -1
100
AcDbDimension
  2
*D23
 10
6934.933455794398
 20
444.1087325920897
 30
0
 11
6467.942914015287
 21
661.219877878353
 31
0
 70
   33
 71
    5
 72
    0
  3
Standard
 53
0
210
0
220
0
230
1
100
AcDbAlignedDimension
 13
6049.276516275806
 23
994.995827095161
 33
0
 14
7000
 24
601.1932660700035
 34
0
  0
DIMENSION
  5
2A1
100
AcDbEntity
  8
quote
  6
ByLayer
 62
  256
370
   -1
100
AcDbDimension
  2
*D24
 10
7090.999472972379
 20
820.8854278887264
 30
0
 11
6474.370673055368
 21
1099.978769145595
 31
0
 70
   33
 71
    5
 72
    0
  3
Standard
 53
0
210
0
220
0
230
1
100
AcDbAlignedDimension
 13
5750
 23
1118.960219036372
 33
0
 14
7000
 24
601.1932660700033
 34
0
  0
DIMENSION
  5
2A2
100
AcDbEntity
  8
quote
  6
ByLayer
 62
  256
370
   -1
100
AcDbDimension
  2
*D25
 10
5784.736458315691
 20
1035.098990261822
 30
0
 11
5626.727000094802
 21
993.3266590649004
 31
0
 70
   33
 71
    5
  3
Standard
 53
0
210
0
220
0
230
1
100
AcDbAlignedDimension
 13
5450.723483724194
 23
994.9958270951606
 33
0
 14
5750
 24
1118.960219036372
 34
0
  0
DIMENSION
  5
2A3
100
AcDbEntity
  8
quote
  6
ByLayer
 62
  256
370
   -1
100
AcDbDimension
  2
*D26
 10
5796.32955886229
 20
1230.809668380477
 30
0
 11
5646.521750738881
 21
1316.539423635975
 31
0
 70
   33
 71
    5
  3
Standard
 53
0
210
0
220
0
230
1
100
AcDbAlignedDimension
 13
5433.641983587209
 23
1250
 33
0
 14
5750
 24
1118.960219036372
 34
0
  0
DIMENSION
  5
2A4
100
AcDbEntity
  8
quote
  6
ByLayer
 62
  256
370
   -1
100
AcDbDimension
  2
*D27
 10
6156.640109902182
 20
217.9602545415231
 30
0
 11
6006.832301778772
 21
303.6900097970217
 31
0
 70
   33
 71
    5
  3
Standard
 53
0
210
0
220
0
230
1
100
AcDbAlignedDimension
 13
5750
 23
131.0397809636283
 33
0
 14
6066.358016412791
 24
0
 34
0
  0
ENDSEC
  0
SECTION
  2
OBJECTS
  0
DICTIONARY
  5
C
330
0
100
AcDbDictionary
281
    1
  3
ACAD_GROUP
350
D
  0
DICTIONARY
  5
D
330
C
100
AcDbDictionary
281
    1
  0
ENDSEC
  0
EOF
